<?xml version="1.0" standalone="no"?>
<!DOCTYPE svg PUBLIC "-//W3C//DTD SVG 1.1//EN" "http://www.w3.org/Graphics/SVG/1.1/DTD/svg11.dtd" >
<svg xmlns="http://www.w3.org/2000/svg">
<metadata>Generated by IcoMoon</metadata>
<defs>
<font id="czechitas-icon" horiz-adv-x="1024">
<font-face units-per-em="1024" ascent="960" descent="-64" />
<missing-glyph horiz-adv-x="1024" />
<glyph unicode="&#x20;" horiz-adv-x="512" d="" />
<glyph unicode="&#xe900;" glyph-name="itprojekty2" d="M848.095 463.279l86.356 26.72-45.315 146.334-86.347-26.72c-17.832 30.24-40.149 57.124-66.606 80.21l42.17 79.974-135.516 71.439-42.17-79.967c-33.799 8.706-68.735 11.949-103.804 9.641l-26.72 86.355-146.334-45.296 26.72-86.356c-30.24-17.817-57.124-40.151-80.21-66.606l-79.974 42.163-71.428-135.509 79.956-42.163c-8.781-33.996-12.006-68.789-9.639-103.819l-86.355-26.741 45.296-146.327 86.356 26.728c17.832-30.233 40.152-57.124 66.606-80.21l-42.17-79.974 135.516-71.439 42.163 79.974c33.783-8.709 68.72-11.98 103.804-9.639l26.741-86.356 146.327 45.289-26.728 86.356c30.248 17.832 57.124 40.152 80.21 66.606l79.974-42.17 71.439 135.516-79.963 42.147c8.766 34.018 11.983 68.803 9.639 103.82zM864.617 300.649l-34.291-65.044-73.689 38.852-10.253-13.011c-25.297-32.065-56.471-57.935-92.633-76.905l-14.68-7.708 24.611-79.549-70.218-21.743-24.649 79.549-16.448-1.946c-40.24-4.753-81.218-0.948-119.869 11.137l-15.826 4.927-38.852-73.689-65.021 34.291 38.848 73.689-13.020 10.253c-32.065 25.297-57.95 56.471-76.913 92.633l-7.693 14.68-79.549-24.634-21.743 70.233 79.557 24.634-1.946 16.451c-4.78 40.567-1.032 80.907 11.13 119.876l4.943 15.826-73.681 38.852 34.284 65.036 73.689-38.852 10.265 13.020c25.297 32.072 56.46 57.95 92.618 76.905l14.68 7.693-24.618 79.549 70.226 21.743 24.618-79.546 16.45 1.939c40.232 4.715 81.218 0.91 119.879-11.137l15.826-4.927 38.852 73.681 65.044-34.291-38.852-73.689 13.011-10.265c32.088-25.29 57.958-56.46 76.905-92.618l7.708-14.68 79.549 24.618 21.743-70.226-79.549-24.618 1.946-16.451c4.78-40.535 1.047-80.889-11.122-119.887l-4.927-15.811 73.67-38.852zM534.843 581.407c-5.417 0.63-10.902 0.941-16.326 0.941-71.462 0-131.556-53.611-139.765-124.698-8.914-77.156 46.596-147.18 123.742-156.099 5.402-0.622 10.883-0.948 16.296-0.948 71.47 0 131.574 53.612 139.786 124.713 8.929 77.141-46.582 147.162-123.742 156.091zM619.028 429.891c-5.899-50.986-48.979-89.458-100.233-89.458-3.888 0-7.841 0.234-11.729 0.687-55.328 6.399-95.14 56.623-88.747 111.956 5.899 50.986 48.964 89.442 100.196 89.442 3.896 0 7.848-0.228 11.752-0.679 55.333-6.399 95.147-56.623 88.763-111.948z" />
<glyph unicode="&#xe901;" glyph-name="codingclub2" d="M949.469 622.422c-100.698 100.716-264.559 100.698-365.256 0-9.141-9.131-9.141-23.95 0-33.091s23.95-9.14 33.091 0c82.471 82.453 216.623 82.435 299.076 0 39.946-39.954 61.957-93.065 61.957-149.551 0-56.492-22.011-109.601-61.957-149.547-39.948-39.946-93.037-61.939-149.53-61.939s-109.601 21.992-149.547 61.939c-9.141 9.141-23.95 9.141-33.091 0s-9.141-23.95 0-33.090c48.777-48.795 113.641-75.651 182.637-75.651 68.978 0 133.844 26.855 182.619 75.651 48.795 48.775 75.67 113.641 75.67 182.637 0.001 68.991-26.873 133.855-75.668 182.642zM408.994 303.324c-39.946-39.948-93.046-61.94-149.537-61.94-56.501 0-109.601 21.992-149.547 61.94-39.946 39.946-61.949 93.055-61.949 149.551 0 56.492 22.002 109.601 61.949 149.547s93.046 61.94 149.547 61.94c56.491 0 109.591-21.992 149.537-61.94 9.141-9.141 23.95-9.141 33.090 0 9.141 9.133 9.141 23.95 0 33.090-48.775 48.785-113.641 75.651-182.627 75.651-68.997 0-133.861-26.865-182.637-75.651-48.795-48.775-75.662-113.641-75.662-182.637 0-68.982 26.865-133.847 75.662-182.642 48.775-48.775 113.641-75.651 182.637-75.651 68.987 0 133.851 26.875 182.627 75.651 9.141 9.141 9.141 23.967 0 33.091-9.14 9.141-23.948 9.141-33.090 0zM201.648 452.875c0-12.929 10.476-23.405 23.401-23.405h565.002c12.926 0 23.401 10.476 23.401 23.405 0 12.926-10.475 23.401-23.401 23.401h-565.002c-12.925 0-23.401-10.475-23.401-23.401z" />
<glyph unicode="&#xe902;" glyph-name="stipendium2" d="M513.622 20.598c-4.539 0-9.067 1.397-12.92 4.198-90.414 65.459-388.038 295.642-421.968 509.036-9.304 58.539 2.296 110.663 34.494 154.94 39.587 54.429 108.729 88.241 180.436 88.241 90.448 0 169.191-50.882 220.857-141.163 56.006 90.986 135.284 142.308 222.116 142.308 69.296 0 137.244-34.254 177.348-89.387 32.204-44.278 43.804-96.401 34.494-154.931-33.908-213.382-331.526-443.592-421.943-509.043-3.839-2.808-8.383-4.198-12.907-4.198zM293.657 732.953c-57.877 0-113.356-26.871-144.812-70.101-25.403-34.938-34.115-74.882-26.609-122.096 24.252-152.496 215.635-341.26 391.376-470.826 175.735 129.585 367.108 318.328 391.341 470.826 7.505 47.213-1.207 87.148-26.609 122.096-31.96 43.952-86.263 71.244-141.72 71.244-47.421 0-136.882-20.162-203.238-155.214-3.717-7.551-11.391-12.316-19.774-12.316-0.157 0-0.326 0-0.484 0.011-8.577 0.179-16.264 5.327-19.705 13.178-42.678 97.358-115.501 153.2-199.776 153.2z" />
<glyph unicode="&#xe903;" glyph-name="newgeneration2" d="M694.841 439.966c36.205 55.563 58.404 127.038 58.404 203.906 0 164.748-108.252 298.784-241.31 298.784s-241.305-134.036-241.305-298.784c0-77.008 22.278-148.615 58.602-204.224-165.22-57.994-225.156-195.814-225.156-310.468 0-6.199 2.401-12.155 6.7-16.629 6.366-6.608 158.626-161.862 401.726-161.862 243.909 0 395.455 155.29 401.782 161.902 4.27 4.475 6.65 10.41 6.65 16.59-0.001 114.956-60.185 253-226.092 310.786zM511.934 894.718c106.617 0 193.373-112.531 193.373-250.846 0-143.203-90.366-268.807-193.373-268.807-103.009 0-193.368 125.607-193.368 268.807 0 138.314 86.747 250.846 193.368 250.846zM512.5-1.375c-194.595 0-329.010 111.885-360.249 140.555 2.308 50.428 24.76 204.425 208.27 260.229 41.744-44.941 94.662-72.281 151.414-72.281 56.865 0 109.875 27.434 151.662 72.544 184.418-55.579 206.868-210.099 209.174-260.563-31.011-28.689-164.334-140.48-360.27-140.48z" />
<glyph unicode="&#xe904;" glyph-name="bezpecnost2" d="M845.627 690.366c-0.635 18.238-1.231 34.657-1.384 48.822-0.155 13.105-10.551 23.801-23.657 24.301-123.396 4.748-228.78 44.203-289.113 108.235-9.294 9.857-26.513 9.857-35.805 0-60.335-64.032-165.715-103.486-289.12-108.235-13.101-0.498-23.502-11.196-23.652-24.301-0.158-14.165-0.746-30.584-1.391-48.822-6.363-178.949-19.588-551.328 314.37-671.882l8.588-3.42c2.921-1.151 6.014-1.747 9.104-1.747 3.084 0 6.178 0.596 9.099 1.747l7.842 3.134c334.706 120.841 321.476 493.219 315.113 672.168zM513.58 64.375l-0.252 0.097c-300.968 108.658-289.055 443.995-282.655 624.153 0.335 9.483 0.658 18.498 0.913 26.97 116.856 8.314 215.384 45.019 281.985 104.913 66.6-59.894 165.128-96.599 281.985-104.913 0.261-8.477 0.577-17.487 0.912-26.97 6.401-180.050 18.28-515.088-282.883-624.246zM513.572 712.071v-531.368l5.581 2.211c227.982 82.31 194.617 353.652 193.506 453.748-86.74 3.337-157.511 31.278-199.087 75.414z" />
<glyph unicode="&#xe905;" glyph-name="deti2" d="M898.734 675.676h-112.472v199.177c0 15.027-12.178 27.21-27.21 27.21s-27.21-12.178-27.21-27.21v-199.18h-426.39v199.18c0 15.027-12.178 27.21-27.21 27.21s-27.21-12.178-27.21-27.21v-199.18h-123.376c-35.609 0-64.578-28.962-64.578-64.566v-556.457c0-35.601 28.969-64.553 64.578-64.553h771.069c35.604 0 64.566 28.95 64.566 64.553v556.46c0 35.604-28.962 64.566-64.566 64.566zM908.887 54.651c0-5.591-4.561-10.138-10.151-10.138h-771.069c-5.602 0-10.162 4.548-10.162 10.138v556.457c0 5.603 4.56 10.15 10.162 10.15h771.069c5.591 0 10.151-4.546 10.151-10.15v-556.457zM735.124 364.085c-15.027 0-27.21-12.178-27.21-27.209v-91.83h-378.584v91.83c0 15.027-12.178 27.209-27.21 27.209s-27.21-12.178-27.21-27.209v-119.041c0-15.027 12.178-27.21 27.21-27.21h433.001c15.027 0 27.21 12.178 27.21 27.21v119.041c0 15.024-12.178 27.209-27.21 27.209zM619.4 405.902c22.693 0 41.069 18.383 41.069 41.069 0 22.699-18.38 41.072-41.069 41.072-22.68 0-41.069-18.38-41.069-41.072 0-22.681 18.385-41.069 41.069-41.069zM414.315 405.902c22.675 0 41.067 18.383 41.067 41.069 0 22.699-18.383 41.072-41.067 41.072-22.687 0-41.076-18.38-41.076-41.072 0-22.681 18.389-41.069 41.076-41.069z" />
<glyph unicode="&#xe906;" glyph-name="difficulty-zadne2" d="M985.772 567.943h-946.327c-21.399 0-38.81-17.411-38.81-38.81v-165.294c0-21.399 17.411-38.81 38.81-38.81h946.33c21.402 0 38.812 17.411 38.812 38.81v165.293c-0.001 21.4-17.411 38.811-38.815 38.811zM669.775 547.701v-202.431h-314.327v202.431h314.327zM20.876 363.839v165.293c0 10.239 8.33 18.568 18.567 18.568h295.76v-202.431h-295.759c-10.239 0-18.568 8.33-18.568 18.569zM1004.343 363.839c0-10.24-8.331-18.569-18.572-18.569h-295.753v202.431h295.754c10.24 0 18.572-8.33 18.572-18.568v-165.293z" />
<glyph unicode="&#xe907;" glyph-name="difficulty-zacatecnik2" d="M985.772 568.084h-946.327c-21.399 0-38.81-17.411-38.81-38.81v-165.295c0-21.399 17.411-38.81 38.81-38.81h946.33c21.402 0 38.812 17.411 38.812 38.81v165.295c-0.001 21.399-17.411 38.81-38.815 38.81zM355.448 547.843h314.327v-202.43h-314.327v202.43zM1004.343 363.979c0-10.238-8.331-18.567-18.572-18.567h-295.753v202.431h295.754c10.24 0 18.572-8.329 18.572-18.568v-165.295z" />
<glyph unicode="&#xe908;" glyph-name="difficulty-pokrocily2" d="M985.772 568.488h-630.324v-242.915h630.326c21.402 0 38.812 17.411 38.812 38.81v165.294c-0.001 21.4-17.411 38.811-38.815 38.811zM1004.343 364.383c0-10.238-8.331-18.567-18.572-18.567h-295.753v202.427h295.754c10.24 0 18.572-8.327 18.572-18.567v-165.294zM335.205 568.488h-295.76c-21.399 0-38.81-17.411-38.81-38.81v-165.295c0-21.399 17.411-38.81 38.81-38.81h295.76v242.915z" />
<glyph unicode="&#xe909;" glyph-name="difficulty-expert2" d="M985.772 568.891h-295.753v-242.915h295.754c21.402 0 38.812 17.411 38.812 38.81v165.295c-0.001 21.399-17.411 38.81-38.815 38.81zM0.635 530.081v-165.295c0-21.399 17.411-38.81 38.81-38.81h295.76v242.915h-295.76c-21.4 0-38.81-17.411-38.81-38.81zM355.448 568.891h314.327v-242.915h-314.327v242.915z" />
<glyph unicode="&#xe90a;" glyph-name="czechitka2" d="M180.454 581.615c-30.787-25.572-50.721-62.277-52.189-103.703-1.537-43.182 17.228-82.666 48.26-110.585h0.039c32.983 25.647 54.525 63.673 56.080 106.832 0.64 17.563-0.064 38.337-7.702 50.338-7.657 12.003-32.248 35.701-44.487 57.118zM211.348 474.927c-1.042-28.936-13.125-56.563-33.755-78.073-18.988 22.928-29.079 51.335-28.026 80.283 0.91 26.035 10.427 50.475 27.171 70.76 8.87-12.478 25.055-21.956 29.582-34.997 4.538-13.031 5.474-25.134 5.028-37.973zM670.585 689.936c1.476-16.057 14.868-30.102 26.681-42.945 27.523-30.053 65.661-45.091 104.933-45.091 2.377 0 4.77 0.076 7.148 0.175 5.487 41.464-5.888 83.679-35.079 115.552-27.536 29.978-66.641 47.452-104.894 45.003l-2.16-0.036c4.684-24.314 1.915-56.589 3.372-72.657zM691.989 739.358c25.884-4.568 49.013-16.998 66.566-36.126 19.59-21.366 30.367-49.573 30.787-79.387-29.83 2.9-56.608 15.981-76.391 37.56-8.588 9.339-18.007 19.117-20.681 31.859-2.688 12.717 1.104 30.742-0.281 46.096zM900.337 195.486l-353.266 321.11c61.852 44.024 102.326 116.165 102.326 197.858 0 12.139-1.188 23.977-2.92 35.639l-3.852 20.511c-25.391 107.078-121.352 186.813-236.188 186.813-134.174 0-242.953-108.773-242.953-242.964 0-40.784 10.168-79.173 27.961-112.942l-0.171-0.087 1.149-1.984c0.578-1.041 1.204-2.045 1.795-3.086l8.14-13.397c43.252-66.982 118.414-111.432 204.076-111.432 21.736 0 42.662 3.113 62.716 8.473v-494.474l150.123 126.109 87.144-178.18 109.057 59.179-85.727 167.306 170.588 35.549zM475.886 878.887c3.099 15.264 4.526 30.088 4.437 44.299 67.354-23.925 119.713-79.397 139.264-148.654-20.027 3.98-40.441 11.611-60.857 23.211-31.402 17.812-60.191 43.674-81.067 72.821l-2.73 3.778 0.953 4.545zM184.773 714.453c0 122.255 99.439 221.675 221.663 221.675 18.214 0 35.851-2.474 52.791-6.615 3.558-73.449-43.76-165.462-124.237-239.226-38.168-34.997-80.697-62.69-123.673-80.816-16.903 31.281-26.544 67.009-26.544 104.982zM469.151 520.646v-18.643c-19.897-5.887-40.929-9.163-62.716-9.163-76.657 0-144.292 39.116-184.129 98.428 44.182 19.056 87.91 47.715 126.888 83.505 51.531 47.212 90.402 101.505 112.388 156.965l6.321 15.903 11.479-12.704c19.871-21.98 43.742-41.162 68.955-55.483 25.244-14.321 51.284-23.324 76.258-27.013 2.135-12.365 3.497-24.982 3.497-37.987 0-76.076-38.546-143.265-97.131-183.224l-0.013 0.010-61.799 56.163v-66.755zM788.551 0.686l-73.369-40.042-89.234 182.374-136.962-115.14v514.685l369.538-335.854-158.767-32.965 88.793-173.057z" />
<glyph unicode="&#xe90b;" glyph-name="czechitka-full2" d="M174.244 569.782c-30.775-25.594-50.701-62.274-52.184-103.712-1.535-43.168 17.224-82.662 48.268-110.609h0.036c32.984 25.666 54.514 63.707 56.068 106.861 0.633 17.573-0.050 38.344-7.701 50.339-7.647 11.986-32.255 35.695-44.487 57.121zM784.283 718.808c-27.531 30.006-66.643 47.479-104.889 44.996l-2.171-0.009c4.669-24.332 1.921-56.602 3.376-72.665 1.473-16.065 14.879-30.11 26.679-42.956 27.543-30.030 65.665-45.066 104.935-45.066 2.389 0 4.758 0.054 7.146 0.166 5.496 41.47-5.881 83.68-35.076 115.534zM519.122 543.447l-49.663 45.152v-67.975l-17.457-3.983c-14.97-3.439-30.134-5.177-45.261-5.177-61.196 0-118.625 27.403-157.311 74.2l-11.337 13.879c42.081 21.692 72.425 40.653 111.404 76.427 51.542 47.218 90.412 101.499 112.391 156.943l6.318 15.927 11.496-12.709c19.872-21.97 43.71-41.17 68.926-55.489 19.218-10.906 38.893-18.679 58.21-23.412v-0.035l3.008-24.188c0.548-5.891 1.095-11.76 1.095-17.341 0-62.947-29.094-122.073-78.486-160.751l-13.331-11.469zM900.644 196.67l-353.281 321.11c61.865 44.039 102.339 116.159 102.339 197.885 0 12.127-1.187 23.962-2.901 35.615l-3.88 20.516c-25.36 107.066-121.351 186.82-236.179 186.82-134.173 0-242.951-108.768-242.951-242.95 0-40.81 10.179-79.206 27.956-112.963l1.002-2.079c0.56-1.047 1.194-2.039 1.774-3.080l8.141-13.399c43.258-66.979 118.413-111.432 204.081-111.432 21.732 0 42.679 3.116 62.717 8.469v-494.486l150.113 126.117 87.162-178.167 109.040 59.144-85.727 167.338 170.597 35.541z" />
<glyph unicode="&#xe929;" glyph-name="testuju2" d="M964.615 741.239c6.726 11.712 2.691 26.662-8.998 33.405-11.698 6.739-26.656 2.72-33.405-8.998-26.371-45.811-65.453-70.948-103.307-67.131-14.811 32.512-40.074 59.031-72.557 75.625-12.383 6.338-25.359 10.813-38.583 13.744 10.113 43.587 35.448 74.371 69.309 82.394 13.145 3.107 21.287 16.292 18.172 29.437-3.136 13.145-16.305 21.303-29.449 18.162-54.771-12.97-94.554-60.78-107.343-126.882-10.741-1.036-21.457-3.112-31.969-6.39-39.995-12.466-72.445-39.688-91.364-76.672-1.664-3.271-3.19-6.613-4.627-9.981-1.014 0.012-2.007 0.114-3.022 0.114-36.148 0-71.811-7.73-105.052-21.969-12.393 57.337-24.697 116.428-4.939 166.893 4.925 12.579-1.277 26.764-13.864 31.695-12.577 4.925-26.76-1.295-31.695-13.864-25.458-65.037-10.182-135.605 3.275-197.865l2.381-11.031c-17.672-11.698-34.191-25.465-49.197-41.067-29.383 45.486-56.959 92.493-56.553 142.385 0.101 13.51-10.762 24.547-24.273 24.655-13.305 0.503-24.547-10.762-24.651-24.266-0.558-69.446 38.446-129.617 73.115-182.754-20.909-31.061-36.062-66.174-44.812-102.704-46.049 32.303-87.483 47.823-169.708 48.296-0.046 0-0.091 0-0.148 0-13.442 0-24.387-10.859-24.457-24.325-0.079-13.505 10.821-24.519 24.318-24.598 80.881-0.457 112.721-16.196 161.863-54.219-0.708-12.119-0.752-24.249 0.011-36.301 4.812-75.899 37.554-139.986 92.168-180.461 38.144-28.265 85.145-43.19 135.915-43.19 26.698 0 53.431 4.162 79.371 11.79 38.354-39.232 50.122-99.465 61.476-157.734l2.578-13.169c2.314-11.653 12.538-19.703 23.965-19.703 1.584 0 3.19 0.15 4.799 0.457 13.246 2.636 21.86 15.496 19.224 28.763l-2.542 13.011c-10.945 56.141-23.295 118.96-61.169 167.21 22.165 10.876 43.19 24.387 62.453 40.284l0.479-0.343c51.122-38.085 109.061-81.258 178.851-85.022 0.457-0.023 0.901-0.034 1.336-0.034 12.916 0 23.714 10.113 24.399 23.144 0.728 13.489-9.612 25.014-23.1 25.745-52.798 2.848-100.422 36.846-146.404 71.051 5.635 6.402 11.122 12.975 16.225 19.854 10.067 13.589 18.8 27.866 26.291 42.598l2.449-0.728c43.166-12.952 90.412-27.115 138.032-27.115 19.701 0 39.459 2.428 59.013 8.349 12.916 3.934 20.215 17.602 16.302 30.521-3.922 12.916-17.581 20.215-30.52 16.302-52.094-15.826-110.362 1.3-166.812 18.208 11.122 36.006 15.037 73.754 11.026 111.277-0.974 9.188-2.428 18.208-4.299 27.063 22.037 15.459 39.801 35.572 51.772 58.985 13.625 26.636 18.882 56.013 15.86 85.212 51.007 2.25 99.907 35.464 132.394 91.881zM291.91 380.134c-3.853 60.624 14.834 123.576 51.236 172.706 44.693 60.307 113.601 96.312 184.33 96.312 37.877 0 73.744-10.449 104.607-30.206-69.672-52.373-236.718-212.269-301.455-349.080-22.414 29.767-36.003 67.473-38.715 110.272zM368.024 233.422c55.010 133.668 245.19 315.667 302.352 353.088 27.727-30.584 45.195-69.765 49.879-113.596 6.155-57.723-10.34-116.36-46.459-165.101-48.234-65.090-125.878-105.509-202.629-105.509-38.604 0-74.12 10.797-103.148 31.114zM772.808 586.422c-6.018-11.771-14.391-22.214-24.328-31.316-16.795 37.979-42.766 70.819-76.537 95.838-26.873 19.913-57.27 33.664-89.662 40.976 13.187 21.946 33.749 38.194 58.763 45.986 27.521 8.579 57.025 5.98 83.034-7.325 26.005-13.299 45.388-35.675 54.556-63.026 9.116-27.159 7.035-55.963-5.826-81.132z" />
<glyph unicode="&#xe92a;" glyph-name="calendar2" d="M1023.008 159.136l-189.408 691.104c-3.136 11.552-15.008 18.368-26.592 15.296l-43.136-11.392-12.544 45.728c-11.776 43.040-57.152 69.376-100.512 57.12-58.528-16.576-67.648-71.808-58.016-99.392l12.448-45.376-88.96-23.52-12.544 45.76c-11.776 43.040-57.152 69.376-100.512 57.12-58.528-16.576-67.648-71.808-58.016-99.392l12.448-45.408-89.12-23.552-12.576 45.92c-11.776 43.040-57.152 69.376-100.512 57.12-58.528-16.576-67.648-71.808-58.016-99.392l12.48-45.568-43.648-11.616c-8.256-2.912-14.176-10.176-15.392-18.848l-50.848-571.232c-0.608-7.008 2.176-13.888 7.552-18.496 4-3.392 9.024-5.216 14.176-5.216 1.76 0 3.52 0.224 5.28 0.64l173.408 43.456 40.544-147.936c2.656-9.696 11.424-16.032 21.024-16.032 1.824 0 3.712 0.224 5.568 0.736l739.968 195.616c8.64 0.8 19.84 14.72 15.456 26.784zM661.984 914.88c20.576 5.312 41.856-6.464 47.36-26.496l12.448-45.376-74.368-19.648-12.544 45.76c-3.584 14.048 0.416 38.88 27.136 45.792zM414.432 849.44c20.576 5.312 41.856-6.464 47.36-26.496l12.448-45.408-74.368-19.68-12.544 45.76c-3.584 14.080 0.416 38.88 27.136 45.792zM166.624 784.128c20.576 5.312 41.856-6.464 47.36-26.496l12.48-45.568-74.368-19.648-12.608 45.952c-3.584 14.080 0.416 38.88 27.136 45.792zM46.208 106.176l37.408 420.224 105.376-384.448-142.784-35.776zM277.344-15.648l-177.888 649.088 138.528 36.608 16.928-61.824 42.016 11.488-16.832 61.472 205.632 54.368 16.992-61.984 42.016 11.488-16.896 61.632 205.44 54.304 16.992-61.984 42.016 11.488-16.896 61.632 21.856 5.792 177.888-649.088-697.824-184.48zM424.576 462.048l-51.648-13.664 11.168-42.080 51.648 13.664zM556.448 496.896l-51.648-13.632 11.136-42.080 51.648 13.632zM688.288 531.744l-51.648-13.664 11.136-42.080 51.648 13.632zM779.616 510.88l51.68 13.664-11.136 42.080-51.68-13.632zM327.264 301.28l-51.648-13.664 11.136-42.080 51.648 13.664zM459.104 336.128l-51.68-13.632 11.136-42.080 51.68 13.664zM590.976 370.976l-51.648-13.664 11.136-42.080 51.648 13.664zM671.136 392.192l11.136-42.080 51.648 13.632-11.136 42.080zM814.144 384.96l51.648 13.664-11.136 42.080-51.648-13.664zM310.112 161.728l11.136-42.080 51.648 13.632-11.136 42.080zM441.952 196.576l11.136-42.080 51.648 13.664-11.136 42.080zM573.792 231.424l11.136-42.080 51.648 13.632-11.136 42.080z" />
<glyph unicode="&#xe92b;" glyph-name="close2" d="M469.216 451.008l-396.192-396.192c-11.008-11.008-11.008-28.832 0-39.84 5.504-5.504 12.704-8.256 19.904-8.256s14.4 2.752 19.904 8.256l399.168 399.168 399.168-399.168c5.504-5.504 12.704-8.256 19.904-8.256s14.432 2.752 19.904 8.256c11.008 11.008 11.008 28.832 0 39.84l-396.192 396.192 396.448 396.48c11.008 11.008 11.008 28.832 0 39.84s-28.832 11.008-39.84 0l-399.424-399.456-399.456 399.424c-11.008 11.008-28.832 11.008-39.84 0s-11.008-28.832 0-39.84l396.48-396.448z" />
<glyph unicode="&#xe92c;" glyph-name="czechipub2" d="M960.192 326.144c0 84.416-69.472 153.44-156.64 158.176v60.416c26.688 11.936 48.064 35.936 55.040 64.96 7.392 30.688-3.104 59.872-27.712 80.032 12.384 35.68 7.968 74.944-13.056 110.528-31.168 52.8-92.032 88.256-151.424 88.256-32.224 0-61.6-10.112-86.432-29.504-55.68 81.344-129.408 94.272-170.624 94.272-68.768 0-137.536-35.712-171.104-88.896-15.296-24.192-22.272-50.048-20.832-75.584-36.736 3.232-71.136-18.4-84.992-53.536-8.48-21.504-8.032-43.936 0.48-63.488-19.392-13.28-31.936-34.88-32.384-58.944-0.288-15.808 5.248-62.24 73.984-92.064v-481.152c0-5.92 2.24-11.648 6.336-15.968 55.712-59.328 175.040-89.088 297.92-89.056 121.184 0 245.856 28.96 316.32 87.040 5.376 4.416 8.48 11.008 8.48 17.984v128.384c87.168 4.736 156.64 73.76 156.64 158.144zM147.104 612c0.256 13.184 10.528 24.064 24.992 26.464 8.768 1.44 15.936 7.776 18.464 16.256s0.064 17.728-6.4 23.776c-16.32 15.232-10.56 34.24-8.384 39.712 4.64 11.776 16.032 24.352 34.016 24.352 8.896 0 18.432-3.072 28.384-9.12 8.8-5.376 20.064-4.32 27.744 2.624s9.856 18.016 5.44 27.328c-14.848 31.2-4.768 58.656 6.304 76.192 25.376 40.192 78.272 67.168 131.68 67.168 60.224 0 111.808-33.952 145.312-95.552 3.68-6.72 10.4-11.232 18.048-12.032 7.648-0.768 15.168 2.176 20.16 8 19.52 22.784 44.96 34.816 73.536 34.816 42.784 0 88.544-26.88 111.296-65.344 11.776-19.936 21.952-50.72 3.488-84.16-3.040-5.536-3.712-12.032-1.888-18.080s6.048-11.072 11.68-13.92c18.56-9.504 26.272-23.232 22.304-39.744-4.416-18.4-23.168-37.408-46.88-37.408-19.68 0-38.976 13.376-55.84 38.656-4.704 7.040-12.832 11.008-21.28 10.304s-15.84-5.888-19.328-13.6c-5.76-12.736-38.72-31.136-83.232-31.136-21.696 0-62.112 4.736-88.832 36.512-5.184 6.176-13.216 9.28-21.184 8.064-7.968-1.152-14.784-6.336-18.016-13.728-15.328-35.040-64.16-75.968-151.264-75.968-21.568 0-44.704 2.496-68.8 7.424-68.096 13.92-91.84 42.24-91.488 62.24zM221.12 49.344v456.512c2.688-0.608 5.344-1.216 8.128-1.792 27.136-5.568 53.44-8.352 78.144-8.352 89.536 0 147.648 35.872 177.888 76.416 27.2-20.384 62.208-31.328 101.408-31.328 41.536 0 79.68 12.16 103.84 31.616 19.712-20.576 42.496-32.704 66.4-35.264v-486.112c-125.76-92.128-436.416-93.184-535.808-1.696zM803.552 214.592v223.104c61.472-4.544 110.048-52.8 110.048-111.552s-48.576-106.976-110.048-111.552zM489.024 467.072c-12.864 0-23.296-10.432-23.296-23.296v-381.728c0-12.864 10.432-23.296 23.296-23.296s23.296 10.432 23.296 23.296v381.728c0 12.864-10.432 23.296-23.296 23.296zM642.784 490.176c-12.864 0-23.296-10.432-23.296-23.296v-369.664c0-12.864 10.432-23.296 23.296-23.296s23.296 10.432 23.296 23.296v369.664c0 12.864-10.432 23.296-23.296 23.296zM335.264 468.064c-12.864 0-23.296-10.432-23.296-23.296v-347.584c0-12.864 10.432-23.296 23.296-23.296s23.296 10.432 23.296 23.296v347.584c0 12.864-10.432 23.296-23.296 23.296z" />
<glyph unicode="&#xe92d;" glyph-name="data2" d="M429.536 801.024v-435.36h435.36c-23.168-193.888-188.608-344.672-388.64-344.672-215.808 0-391.392 175.584-391.392 391.392 0 200 150.784 365.472 344.672 388.64zM476.256 850.528c-241.952 0-438.144-196.16-438.144-438.144s196.16-438.112 438.144-438.112c241.984 0 438.144 196.16 438.144 438.112h-438.144v438.144zM596.672 870.944c178.56-21.344 320.544-163.328 341.888-341.888h-341.888v341.888zM549.952 920.48v-438.144h438.112c0 241.984-196.16 438.144-438.112 438.144v0z" />
<glyph unicode="&#xe92e;" glyph-name="down-arrow2" d="M968.544 708.256l-456.96-453.248-457.28 453.568c-6.368 6.304-14.656 9.44-23.008 9.44s-16.608-3.136-22.976-9.44c-12.704-12.576-12.704-32.992 0-45.6l479.68-475.744c3.2-3.2 7.904-6.016 12.128-7.616 12-4.512 25.568-1.696 34.656 7.296l479.712 475.744c12.704 12.576 12.704 32.992 0 45.6s-33.248 12.576-45.952 0z" />
<glyph unicode="&#xe92f;" glyph-name="facebook2" d="M718.272 776.96h100.192v182.944h-182.080c-15.2 0.64-200.352 4.16-248.352-178.848-0.704-1.92-16.032-45.44-16.032-147.104l-166.496-0.512v-191.872l166.72 0.48v-506.080h254.656v505.632h168.544v192.384h-168.544v60.544c0 37.632 15.872 82.464 91.424 82.464zM753.28 591.872v-108.096h-168.544v-505.632h-170.368v506.176l-166.72-0.48v107.584l167.136 0.48-0.448 21.44c-2.176 107.712 13.152 152.992 13.856 155.168 41.408 157.632 199.584 149.696 206.368 149.28l141.76-0.032v-98.656h-58.048c-98.464 0-133.536-64.352-133.536-124.544v-102.656h168.512z" />
<glyph unicode="&#xe930;" glyph-name="facebook-full2" d="M394.016 605.344h-118.016v-157.344h118.016v-472h196.672v472h143.264l14.080 157.344h-157.344v65.568c0 37.568 7.552 52.416 43.872 52.416h113.472v196.672h-149.792c-141.44 0-204.224-62.272-204.224-181.536v-133.152z" />
<glyph unicode="&#xe931;" glyph-name="github2" d="M344.672 404.256c-51.232 0-92.896-50.016-92.896-111.488s41.664-111.488 92.896-111.488 92.896 50.016 92.896 111.488-41.664 111.488-92.896 111.488zM344.672 218.464c-30.72 0-55.744 33.344-55.744 74.336s25.024 74.336 55.744 74.336 55.744-33.344 55.744-74.336-24.992-74.336-55.744-74.336zM697.696 404.256c-51.232 0-92.896-50.016-92.896-111.488s41.664-111.488 92.896-111.488 92.896 50.016 92.896 111.488-41.664 111.488-92.896 111.488zM697.696 218.464c-30.72 0-55.744 33.344-55.744 74.336s25.024 74.336 55.744 74.336 55.744-33.344 55.744-74.336-24.992-74.336-55.744-74.336zM726.048 497.152c-0.896 0-1.856 0-2.784-0.032-17.216-0.288-34.432-0.992-51.648-1.696-15.68-0.64-31.36-1.28-47.040-1.568l-27.232-0.576c-47.264-0.992-96.224-1.984-144.032-1.792-21.824 0.096-43.648 0.896-65.44 1.728-29.696 1.12-60.352 2.304-90.784 1.536-42.24-1.024-77.76-14.528-105.632-40.128v0c-46.272-42.528-65.44-98.944-58.496-172.48 10.080-106.72 53.152-161.28 148.672-188.32 80.32-22.72 160.992-24.768 228.96-23.808l22.624-0.096c7.648-0.064 15.264-0.128 22.912-0.128 9.408 0 18.848 0.096 28.256 0.384 66.784 2.144 125.344 12.128 178.976 30.56 58.88 20.224 98.080 58.816 116.48 114.752 14.048 42.72 18.176 83.232 12.608 123.776-9.056 65.952-66.592 157.888-166.464 157.888zM844.608 227.104c-14.784-44.896-45.28-74.72-93.248-91.2-50.080-17.184-105.056-26.528-168.096-28.544-16.544-0.512-33.12-0.384-49.664-0.256l-23.2 0.128c-65.504-0.928-142.848 0.96-218.56 22.4-80.224 22.688-113.248 64.992-121.824 156.032-5.76 61.184 9.504 107.488 46.624 141.632 21.056 19.328 48.416 29.536 81.376 30.336 29.28 0.672 59.392-0.416 88.48-1.536 22.208-0.832 44.448-1.664 66.688-1.76 48.448-0.224 97.504 0.832 144.96 1.824l27.168 0.544c15.936 0.32 31.84 0.992 47.776 1.632 16.928 0.672 33.856 1.376 50.784 1.664 0.672 0.032 1.344 0.032 2.016 0.032 76.736 0 122.752-74.72 129.76-125.824 4.8-34.816 1.184-69.856-11.072-107.104zM963.712 615.136c-11.072 15.232-16.096 24.16-14.528 40.448 3.296 34.24-1.408 68.704-5.92 102.016l-0.288 2.208c-6.048 44.672-17.728 87.296-34.688 126.688l-6.048 14.016-27.456-5.824c-38.112-8-77.536-16.288-113.472-37.056-23.872-13.792-47.616-28.48-70.56-42.688-15.36-9.504-30.72-19.040-46.208-28.288-0.832-0.512-2.496-0.896-2.976-0.896 0 0 0 0 0 0-83.104 14.528-169.408 14.656-256.608 0.416-1.088-0.192-4.576 0.416-7.392 2.048-9.6 5.728-18.944 11.904-28.256 18.048-10.848 7.168-21.696 14.304-32.832 20.8-53.184 31.232-111.936 61.344-181.216 70.176l-13.568 1.76-7.232-15.68c-1.344-2.848-2.496-5.344-3.456-7.904-19.872-53.6-31.872-109.792-35.744-168.8-1.344-20.448-2.752-41.632 0.256-62.752 0.992-7.008 0.16-8.416-2.56-11.84-25.024-31.2-42.912-63.84-54.72-99.744-19.84-60.32-23.424-127.2-11.328-210.4 10.048-69.632 27.104-120.416 55.328-164.672 59.328-93.056 150.912-145.472 272.224-155.808 60.64-5.152 122.144-5.952 182.464-5.952 12.96 0 25.888 0.032 38.72 0.064 16.928 0.064 33.888 0.096 50.752 0.064 77.664-0.032 139.616 10.080 195.936 32.128 100.256 39.232 166.944 112.288 198.144 217.184 17.408 58.432 25.184 120.576 23.136 184.704-2.272 71.456-22.432 133.888-59.936 185.504zM964.928 255.488c-28.16-94.624-85.76-157.824-176.064-193.184-51.84-20.32-109.056-29.92-182.304-29.568-16.96 0.032-33.952 0-50.944-0.064-71.744-0.192-145.92-0.416-217.952 5.728-110.72 9.408-190.56 54.816-244.064 138.752-25.248 39.584-40.64 85.856-49.888 150.048-11.424 78.4-8.352 138.080 9.856 193.472 10.4 31.616 26.208 60.416 48.416 88.096 9.728 12.128 12.704 23.808 10.336 40.32-2.464 17.312-1.184 36.48 0.16 56.864 3.424 52.16 14.144 103.392 31.84 152.32 56.96-10.080 107.264-36.224 153.344-63.264 10.592-6.208 20.896-12.992 31.168-19.776 9.792-6.464 19.616-12.928 29.664-18.944 10.048-5.984 22.144-8.544 32.448-6.848 83.008 13.536 165.184 13.44 244.256-0.384 9.12-1.536 19.968 0.608 28.384 5.664 15.616 9.376 31.136 18.976 46.624 28.576 23.072 14.304 46.144 28.544 69.6 42.112 30.080 17.376 64.032 24.736 100 32.32 12.544-32.32 21.344-66.912 26.24-102.944l0.288-2.208c4.224-31.232 8.608-63.52 5.728-93.472-2.848-29.632 8.544-48.064 21.472-65.856 33.504-46.144 50.816-100.064 52.896-164.864 1.952-60.192-5.312-118.4-21.568-172.992z" />
<glyph unicode="&#xe932;" glyph-name="github-full2" d="M688.928 375.104c-39.968 0-72.384-44.8-72.384-100.128s32.416-100.16 72.384-100.16c39.936 0 72.32 44.832 72.32 100.16s-32.384 100.128-72.32 100.128zM940.832 635.744c8.224 20.32 8.64 135.808-35.296 246.336 0 0-100.8-11.040-253.344-115.712-31.968 8.832-86.112 13.248-140.224 13.248s-108.224-4.416-140.224-13.248c-152.512 104.64-253.28 115.712-253.28 115.712-43.936-110.528-43.552-226.016-35.296-246.336-51.648-56.064-83.168-123.392-83.168-215.392 0-399.936 331.776-406.336 415.552-406.336 18.944 0 56.64-0.032 96.448-0.096 39.84 0.064 77.536 0.096 96.448 0.096 83.744 0 415.552 6.4 415.552 406.336 0 92-31.552 159.328-83.168 215.392zM513.568 63.168h-3.136c-209.92 0-373.376 25.056-373.376 229.056 0 48.864 17.248 94.208 58.208 131.872 68.352 62.72 183.968 29.504 315.168 29.504 0.512 0 1.024 0 1.568 0.032 0.544-0.032 1.056-0.032 1.568-0.032 131.232 0 246.848 33.216 315.168-29.504 40.96-37.632 58.208-83.008 58.208-131.872 0-204-163.488-229.056-373.376-229.056zM335.072 375.104c-39.936 0-72.32-44.8-72.32-100.128s32.384-100.16 72.32-100.16c39.968 0 72.384 44.832 72.384 100.16s-32.416 100.128-72.384 100.128z" />
<glyph unicode="&#xe933;" glyph-name="gplus2" d="M638.304 533.344h-331.104v-153.6h167.264c-23.904-63.136-76.8-102.4-146.784-102.4-92.16 0-174.080 80.224-174.080 170.656s81.92 170.656 174.080 170.656c44.384 0 81.92-13.664 109.216-40.96l11.936-11.936 114.336 114.336-13.664 11.936c-52.896 52.896-129.696 80.224-221.856 80.224-184.32 0-327.68-141.664-327.68-324.256s143.36-324.256 327.68-324.256c168.96 0 290.144 98.976 312.32 259.424 3.424 20.48 5.12 42.656 5.12 64.864 0 25.6-1.696 51.2-5.12 71.68l-1.696 13.664zM607.584 388.256c-22.176-145.056-126.304-230.4-279.904-230.4-163.84 0-293.536 128-293.536 290.144s129.696 290.144 293.536 290.144c76.8 0 138.24-20.48 186.016-58.016l-66.56-66.56c-30.72 25.6-71.68 39.264-119.456 39.264-112.64 0-208.224-93.856-208.224-204.8s95.584-204.8 206.496-204.8c92.16 0 165.536 59.744 186.016 150.176l5.12 20.48h-175.776v85.344h267.936c1.696-15.36 3.424-34.144 3.424-51.2 0-20.48-1.696-40.96-5.12-59.744zM921.6 533.344v102.4h-119.456v-102.4h-102.4v-119.456h102.4v-102.4h119.456v102.4h102.4v119.456h-102.4zM989.856 448h-102.4v-102.4h-51.2v102.4h-102.4v51.2h102.4v102.4h51.2v-102.4h102.4v-51.2z" />
<glyph unicode="&#xe934;" glyph-name="gplus-full2" d="M298.656 490.656v-102.4h169.376c-6.816-43.904-51.2-128.864-169.376-128.864-101.984 0-185.184 84.448-185.184 188.576 0 104.096 83.2 188.576 185.184 188.576 58.016 0 96.864-24.736 119.040-46.080l81.056 78.080c-52.064 48.64-119.456 78.080-200.096 78.080-165.12 0-298.656-133.536-298.656-298.656s133.536-298.656 298.656-298.656c172.384 0 286.752 121.184 286.752 291.84 0 19.616-2.176 34.56-4.736 49.504h-282.016zM298.656 490.656l725.344-85.344h-128v-128h-85.344v128h-128v85.344h128v128h85.344v-128h128v-85.344z" />
<glyph unicode="&#xe935;" glyph-name="home2" d="M1015.584 470.688l-478.144 474.144c16.48-36.032-14.464 43.136-49.792 0.608l-479.232-474.944c-11.264-11.136-11.264-29.152 0-40.288s29.504-11.136 40.768 0l36.16 35.904v-471.392c0-31.424 25.472-56.896 56.896-56.896h739.648c31.424 0 56.768 25.472 56.768 56.896v471.168l36.032-35.456c11.264-11.136 29.504-11.136 40.768 0s11.264 29.056 0.128 40.288zM881.984-5.312h-739.744v527.808l368.512 365.184 371.136-365.792v-527.232zM369.824 364.48v-341.376h56.896v341.376h170.688v-341.376h57.024v341.376c0 31.424-25.472 56.896-57.024 56.896h-170.56c-31.424 0-57.024-25.472-57.024-56.896z" />
<glyph unicode="&#xe936;" glyph-name="instagram2" d="M861.856 842.656h-102.4c-30.592 0-55.456-24.864-55.456-55.456v-102.4c0-30.592 24.864-55.456 55.456-55.456h102.4c30.592 0 55.456 24.864 55.456 55.456v102.4c0 30.592-24.864 55.456-55.456 55.456zM874.656 684.8c0-7.072-5.728-12.8-12.8-12.8h-102.4c-7.072 0-12.8 5.728-12.8 12.8v102.4c0 7.072 5.728 12.8 12.8 12.8h102.4c7.072 0 12.8-5.728 12.8-12.8v-102.4zM806.4 949.344h-588.8c-119.968 0-217.6-97.888-217.6-218.272v-566.176c0-120.352 97.632-218.24 217.6-218.24h588.8c119.968 0 217.6 97.888 217.6 218.24v566.176c0 120.352-97.632 218.272-217.6 218.272zM981.344 164.896c0-96.8-78.496-175.584-174.944-175.584h-588.8c-96.48 0-174.944 78.752-174.944 175.584v379.104h260.704c-55.488-54.24-90.048-129.792-90.048-213.344 0-164.704 133.984-298.656 298.656-298.656s298.656 133.984 298.656 298.656c0 83.552-34.56 159.072-90.048 213.344h260.704v-379.104zM768 330.656c0-141.152-114.848-256-256-256s-256 114.848-256 256 114.848 256 256 256 256-114.848 256-256zM665.056 586.656c-44.832 26.912-97.056 42.656-153.056 42.656s-108.224-15.776-153.056-42.656h-316.288v144.416c0 96.832 78.496 175.584 174.944 175.584h588.8c96.448 0 174.944-78.752 174.944-175.584v-144.416h-316.288zM320 330.656c0-105.856 86.112-192 192-192s192 86.144 192 192-86.112 192-192 192-192-86.144-192-192zM661.344 330.656c0-82.336-67.008-149.344-149.344-149.344s-149.344 66.976-149.344 149.344 67.008 149.344 149.344 149.344 149.344-66.976 149.344-149.344z" />
<glyph unicode="&#xe937;" glyph-name="instagram-full2" d="M875.072 920h-726.176c-60.128 0-108.928-48.768-108.928-108.928v-726.080c0-60.224 48.768-108.992 108.928-108.992h726.208c60.128 0 108.864 48.768 108.864 108.992v726.080c0 60.128-48.736 108.928-108.928 108.928zM512 629.536c100.256 0 181.568-81.216 181.568-181.536 0-100.256-81.312-181.568-181.568-181.568s-181.536 81.344-181.536 181.568c0 100.288 81.28 181.536 181.536 181.536zM866.016 130.272c0-20.032-16.256-36.256-36.352-36.256h-635.328c-20.096 0-36.352 16.256-36.352 36.256v396.416h74.624c-3.456-12.384-6.016-25.184-7.872-38.208-1.952-13.248-3.2-26.72-3.2-40.48 0-160.448 130.048-290.464 290.432-290.464s290.432 130.048 290.432 290.464c0 13.76-1.216 27.232-3.2 40.448-1.856 13.024-4.416 25.792-7.872 38.208h74.624v-396.352zM866.016 680.16c0-20.032-16.256-36.32-36.352-36.32h-85.504c-20.096 0-36.32 16.288-36.32 36.32v85.536c0 20.064 16.192 36.32 36.32 36.32h85.504c20.096 0 36.352-16.256 36.352-36.32v-85.536z" />
<glyph unicode="&#xe938;" glyph-name="left-arrow2" d="M703.296-2.88c6.336-6.336 14.304-9.536 23.008-9.536s16.672 3.168 23.008 9.536c12.704 12.704 12.704 33.344 0 46.048l-404.832 404.832 404.832 404.832c12.704 12.704 12.704 33.344 0 46.048s-33.344 12.704-46.048 0l-428.64-427.872c-12.704-12.704-12.704-33.344 0-46.048l428.64-427.872z" />
<glyph unicode="&#xe939;" glyph-name="link2" d="M798.72 755.2h-409.6c-11.296 0-20.48-9.184-20.48-20.48s9.184-20.48 20.48-20.48h360.16l-406.496-406.496c-8-8-8-20.96 0-28.96 4-4 9.248-6.016 14.496-6.016s10.496 2.016 14.496 6.016l406.496 406.496v-360.16c0-11.296 9.184-20.48 20.48-20.48s20.48 9.184 20.48 20.48v409.6c0 11.296-9.184 20.48-20.48 20.48zM942.016 960h-860.064c-45.216 0-81.984-36.768-81.984-81.984v-860.064c0-45.216 36.768-81.984 81.984-81.984h860.064c45.216 0 81.984 36.768 81.984 81.984v860.064c0 45.216-36.768 81.984-81.984 81.984zM983.040 17.984c0-22.624-18.4-41.024-41.024-41.024h-860.064c-22.624 0-41.024 18.4-41.024 41.024v860.064c0 22.624 18.4 41.024 41.024 41.024h860.064c22.624 0 41.024-18.4 41.024-41.024v-860.064z" />
<glyph unicode="&#xe93a;" glyph-name="linkedin2" d="M284-22.816h-229.056v642.944h229.056v-642.944zM96.96 19.2h145.024v558.912h-145.024v-558.912zM169.504 660.256c-71.36 0-129.44 58.016-129.44 129.312s58.080 129.248 129.44 129.248c71.328 0 129.344-57.984 129.344-129.248 0-71.296-58.016-129.312-129.344-129.312zM169.504 876.8c-48.192 0-87.424-39.136-87.424-87.232 0-48.128 39.2-87.264 87.424-87.264 48.16 0 87.328 39.168 87.328 87.296s-39.168 87.232-87.328 87.232zM983.904-22.816h-228.736v313.184c0 93.728-11.392 138.336-76.16 138.336-65.536 0-91.072-37.344-91.072-133.248v-318.272h-228.672v642.944h221.152v-45.472c35.2 33.184 88.576 60.416 158.368 60.416 216 0 245.12-155.328 245.12-307.296v-350.56h0.032zM797.184 19.2h144.704v308.544c0 163.776-33.984 265.28-203.104 265.28-83.424 0-137.376-46.24-158.24-85.824l-5.92-11.232h-36.256v82.112h-137.088v-558.912h144.608v276.288c0 47.936 0 175.264 133.088 175.264 118.176 0 118.176-117.312 118.176-180.352v-271.168h-0.032z" />
<glyph unicode="&#xe93b;" glyph-name="linkedin-full2" d="M251.552 763.36c0-51.232-41.184-92.768-92-92.768s-92 41.536-92 92.768c0 51.2 41.184 92.768 92 92.768s92-41.568 92-92.768zM252.288 596.416h-185.504v-593.632h185.504v593.632zM548.448 596.416h-184.32v-593.632h184.352v311.616c0 173.248 223.68 187.424 223.68 0v-311.616h185.056v375.872c0 292.352-331.040 281.696-408.8 137.792v79.968z" />
<glyph unicode="&#xe93c;" glyph-name="mail2" d="M829.088 249.76c-4.064 0-8.128 1.472-11.296 4.48l-189.984 178.24c-6.624 6.208-6.976 16.672-0.736 23.328 6.24 6.688 16.64 7.008 23.36 0.736l189.984-178.24c6.624-6.208 6.976-16.672 0.736-23.328-3.264-3.456-7.616-5.216-12.064-5.216zM194.88 249.76c-4.384 0-8.768 1.76-12.064 5.216-6.24 6.624-5.92 17.12 0.736 23.328l190.048 178.24c6.656 6.208 17.152 5.952 23.36-0.736 6.24-6.624 5.92-17.12-0.736-23.328l-190.048-178.24c-3.168-3.008-7.232-4.48-11.296-4.48zM941.44 84.032h-858.912c-45.504 0-82.56 37.024-82.56 82.56v562.88c0 45.536 37.056 82.56 82.56 82.56h858.912c45.504 0 82.56-37.024 82.56-82.56v-562.88c0-45.536-37.056-82.56-82.56-82.56zM82.56 778.976c-27.296 0-49.536-22.208-49.536-49.536v-562.88c0-27.296 22.208-49.536 49.536-49.536h858.912c27.296 0 49.536 22.208 49.536 49.536v562.88c0 27.296-22.208 49.536-49.536 49.536h-858.912zM512 365.056c-21.952 0-43.904 7.296-60.64 21.856l-423.968 369.856c-6.88 5.984-7.584 16.416-1.632 23.328 6.048 6.88 16.448 7.488 23.328 1.6l423.968-369.824c21.088-18.4 56.768-18.4 77.824 0l423.456 369.216c6.848 5.984 17.248 5.312 23.328-1.6 5.984-6.912 5.28-17.312-1.6-23.328l-423.456-369.216c-16.736-14.592-38.656-21.888-60.64-21.888z" />
<glyph unicode="&#xe93d;" glyph-name="map2" d="M691.616 681.6c0 100-79.392 179.392-179.616 179.392s-179.616-81.408-179.616-179.392c0-100 81.408-179.392 179.616-179.392s179.616 79.2 179.616 179.392zM374.208 679.392c0 77.184 62.592 137.6 137.792 137.6s137.792-60.416 137.792-137.6c0-77.184-60.608-137.6-137.792-137.6s-137.792 60.384-137.792 137.6zM1000.608-14.784l-160.8 458.784c-2.016 8.384-10.4 14.592-18.784 14.592h-132.608c44.192 84 80.384 169.408 80.384 223.2 0 141.6-114.784 256.192-256.8 256.192s-256.8-114.592-256.8-258.592c0-53.408 35.808-137.6 79.616-220.992h-131.808c-8.416 0-16.8-6.208-18.816-14.592l-160.8-458.592c-2.016-6.208-2.016-12.608 2.016-18.784 4.192-4.192 10.4-8.384 16.8-8.384h939.616c6.208 0 12.608 4.192 16.8 8.384 4.192 6.208 4.192 12.384 2.016 18.784zM296.992 681.6c0 118.816 96 214.816 215.008 214.816s215.008-96 215.008-214.816c0-116.8-195.008-405.408-215.008-435.808-19.392 30.592-215.008 301.792-215.008 435.808zM71.392-0.192l146.208 416.992h139.808c62.816-112.384 154.592-246.016 154.592-246.016s89.792 131.392 154.592 246.016h140l146.208-416.992h-881.408z" />
<glyph unicode="&#xe93e;" glyph-name="minus2" d="M36.192 411.552c-20.16 0-36.192 16.512-36.192 36.704s16.032 36.192 36.192 36.192h951.072c20.16 0 36.736-16.032 36.736-36.192s-16.544-36.736-36.736-36.736h-951.072z" />
<glyph unicode="&#xe93f;" glyph-name="original2" d="M301.664-5.12c2.784 1.248 14.944 1.888 432.96 179.744l10.432 4.448 192.672 700.928-662.272-228.8-194.432-406.912 2.336-8.448c26.272-95.008 144.544-201.568 196.384-232.48 0 0 16.864-10.752 21.952-8.48zM705.856 213.312c-147.552-62.752-357.952-151.776-402.816-169.536-39.904 23.232-145.056 117.856-172.064 196.48l178.24 373.056 506.848 175.104-274.72-277.856c-16.16 10.048-35.136 15.84-55.328 15.84-4.256 0-8.544-0.256-12.8-0.768-27.904-3.392-52.8-17.44-70.112-39.552s-24.992-49.664-21.6-77.568c6.432-52.736 51.264-92.48 104.32-92.48 4.256 0 8.576 0.256 12.8 0.768 27.904 3.392 52.8 17.44 70.112 39.552s24.992 49.664 21.6 77.536c-1.952 16.032-7.488 30.848-15.68 43.712l282.304 285.536-151.136-549.856zM531.904 385.248c-9.6-12.288-23.424-20.064-38.88-21.952-32.288-3.968-61.12 19.296-64.96 50.88-1.888 15.456 2.368 30.752 11.968 43.008s23.424 20.064 38.88 21.952c2.4 0.288 4.8 0.416 7.136 0.416 7.296 0 14.336-1.376 20.832-3.872 15.104-5.824 27.104-17.888 33.12-33.12 1.792-4.544 3.264-9.28 3.872-14.304 1.888-15.456-2.368-30.72-11.968-43.008z" />
<glyph unicode="&#xe940;" glyph-name="plus2" d="M36.448 411.552c-20.16 0-36.192 16.544-36.192 36.704s16.032 36.192 36.192 36.192h438.816v438.848c0.032 20.16 16.576 36.704 36.736 36.704s36.192-16.544 36.192-36.704v-438.848h438.816c20.16 0 36.704-16.032 36.704-36.192s-16.544-36.704-36.704-36.704h-438.816v-438.848c0-20.16-16.032-36.704-36.192-36.704s-36.704 16.544-36.704 36.704v438.848h-438.848z" />
<glyph unicode="&#xe941;" glyph-name="programuji2" d="M279.456 768.224c15.616 0 28.288 12.672 28.288 28.288s-12.672 28.288-28.288 28.288c-51.296 0-91.744-14.944-120.256-44.384-51.968-53.664-49.152-140.864-47.456-192.96 0.256-7.968 0.512-15.168 0.512-21.408 0-49.824-33.28-81.984-55.68-91.424-0.608-0.256-1.152-0.64-1.728-0.96-1.024-0.512-2.016-0.992-2.976-1.632-0.768-0.512-1.408-1.12-2.112-1.696s-1.472-1.152-2.144-1.824c-0.704-0.704-1.28-1.504-1.888-2.24-0.544-0.672-1.12-1.28-1.6-2.016-0.672-0.992-1.184-2.048-1.696-3.136-0.288-0.544-0.64-1.024-0.864-1.6-0.032-0.064-0.032-0.128-0.064-0.192-0.544-1.344-0.928-2.72-1.28-4.096-0.096-0.416-0.288-0.832-0.384-1.248-0.384-1.888-0.512-3.84-0.512-5.792 0.032-1.728 0.192-3.456 0.512-5.12 0.096-0.48 0.288-0.928 0.416-1.408 0.352-1.344 0.672-2.656 1.216-3.936 0.032-0.064 0.032-0.128 0.064-0.192 0.64-1.504 1.376-2.88 2.24-4.192 0.192-0.32 0.448-0.608 0.672-0.928 0.736-1.056 1.536-2.080 2.4-3.008 0.352-0.384 0.704-0.736 1.056-1.088 0.96-0.928 1.952-1.76 3.008-2.528 0.288-0.224 0.576-0.48 0.896-0.672 1.408-0.96 2.912-1.76 4.448-2.432 0.128-0.032 0.192-0.128 0.32-0.192 22.368-9.44 55.68-41.6 55.68-91.424 0-6.176-0.224-13.408-0.48-21.408-1.728-54.080-4.608-144.576 48.864-199.776 28.48-29.408 68.48-44.32 118.88-44.32 15.616 0 28.288 12.672 28.288 28.288s-12.672 28.288-28.288 28.288c-34.976 0-60.576 8.864-78.24 27.104-36.8 37.984-34.4 113.504-32.96 158.624 0.288 8.704 0.512 16.544 0.512 23.232 0 50.336-22.592 91.104-50.912 117.472 28.352 26.4 50.912 67.168 50.912 117.472 0 6.752-0.256 14.592-0.512 23.2-1.504 45.92-3.744 115.328 31.552 151.776 17.728 18.304 43.776 27.2 79.648 27.2zM987.52 436.32c0.352 1.792 0.544 3.616 0.544 5.472s-0.192 3.68-0.544 5.472c-0.096 0.448-0.288 0.864-0.384 1.312-0.352 1.376-0.704 2.752-1.248 4.064-0.032 0.064-0.032 0.128-0.064 0.192-0.256 0.608-0.608 1.088-0.896 1.632-0.544 1.056-1.024 2.112-1.696 3.072-0.512 0.736-1.088 1.376-1.632 2.048-0.608 0.768-1.184 1.536-1.856 2.208s-1.44 1.216-2.144 1.824c-0.704 0.576-1.344 1.184-2.112 1.664-0.928 0.608-1.92 1.088-2.944 1.6-0.608 0.32-1.152 0.704-1.76 0.96-22.368 9.44-55.648 41.6-55.648 91.424 0 6.176 0.224 13.408 0.48 21.408 1.728 54.080 4.608 144.576-48.864 199.776-28.48 29.408-68.48 44.32-118.848 44.32-15.616 0-28.288-12.672-28.288-28.288s12.672-28.288 28.288-28.288c34.976 0 60.576-8.864 78.24-27.104 36.8-37.984 34.4-113.504 32.96-158.624-0.288-8.704-0.544-16.544-0.544-23.232 0-50.304 22.592-91.104 50.912-117.472-28.352-26.368-50.912-67.168-50.912-117.472 0-6.752 0.256-14.592 0.544-23.232 1.504-45.92 3.744-115.328-31.552-151.776-17.696-18.304-43.744-27.168-79.616-27.168-15.616 0-28.288-12.672-28.288-28.288s12.672-28.288 28.288-28.288c51.264 0 91.744 14.944 120.256 44.384 51.968 53.664 49.152 140.864 47.456 192.96-0.256 7.968-0.512 15.168-0.512 21.408 0 49.824 33.28 81.984 55.648 91.424 0.128 0.032 0.192 0.128 0.32 0.192 1.536 0.672 3.040 1.472 4.448 2.432 0.32 0.192 0.608 0.448 0.896 0.672 1.056 0.768 2.048 1.6 3.008 2.528 0.384 0.352 0.736 0.704 1.056 1.088 0.864 0.928 1.664 1.92 2.4 3.008 0.224 0.32 0.48 0.608 0.672 0.96 0.832 1.312 1.6 2.688 2.24 4.192 0.032 0.064 0.032 0.128 0.064 0.192 0.544 1.312 0.928 2.688 1.28 4.064 0.096 0.416 0.288 0.832 0.384 1.248zM556.032 172c0-23.392-18.976-42.336-42.336-42.336s-42.336 18.976-42.336 42.336c0 23.392 18.976 42.336 42.336 42.336s42.336-18.976 42.336-42.336zM475.744 745.472c-61.152-14.56-99.136-57.024-99.136-110.88 0-15.616 12.672-28.288 28.288-28.288s28.288 12.672 28.288 28.288c0 38.432 38.912 51.84 55.648 55.84 42.112 10.016 96.832-1.728 115.488-38.72 28.672-56.832-13.312-120.992-64.448-156.512-62.4-43.36-56.704-135.712-54.816-166.048 0.16-2.528 0.288-4.448 0.32-5.664 0-15.616 12.672-28.288 28.288-28.288s28.288 12.672 28.288 28.288c0 1.92-0.16 5.056-0.416 9.152-1.376 22.496-5.632 90.912 30.624 116.096 70.56 49.056 126.56 141.472 82.688 228.448-32.8 64.992-114.912 83.552-179.136 68.256z" />
<glyph unicode="&#xe942;" glyph-name="reg-close2" d="M785.056 840.544h-85.344v17.056c0 18.784-15.36 34.144-34.144 34.144h-51.2v17.056c0 29.024-22.176 51.2-51.2 51.2h-102.4c-29.024 0-51.2-23.904-51.2-51.2v-17.056h-51.2c-18.784 0-34.144-15.36-34.144-34.144v-17.056h-85.344c-47.776 0-85.344-37.536-85.344-85.344v-733.856c0-47.776 37.536-85.344 85.344-85.344h546.144c47.776 0 85.344 37.536 85.344 85.344v733.856c0 47.776-37.536 85.344-85.344 85.344zM358.4 857.6h68.256c10.24 0 17.056 6.816 17.056 17.056v34.144c0 10.24 6.816 17.056 17.056 17.056h102.4c10.24 0 17.056-8.544 17.056-17.056v-34.144c0-10.24 6.816-17.056 17.056-17.056h68.256v-119.456h-307.2v119.456zM836.256 21.344c0-29.024-22.176-51.2-51.2-51.2h-546.144c-29.024 0-51.2 22.176-51.2 51.2v733.856c0 29.024 22.176 51.2 51.2 51.2h85.344v-68.256c0-18.784 15.36-34.144 34.144-34.144h307.2c18.784 0 34.144 15.36 34.144 34.144v68.256h85.344c29.024 0 51.2-22.176 51.2-51.2v-733.856zM631.456 465.056c0 66.56-52.896 119.456-119.456 119.456s-119.456-52.896-119.456-119.456v-17.056h-68.256v-307.2h375.456v307.2h-68.256v17.056zM426.656 465.056c0 47.776 37.536 85.344 85.344 85.344s85.344-37.536 85.344-85.344v-17.056h-170.656v17.056zM665.6 413.856v-238.944h-307.2v238.944h307.2zM494.944 245.376v-19.232c0-10.24 6.816-17.056 17.056-17.056s17.056 6.816 17.056 17.056v19.232c29.344 7.616 51.2 34.432 51.2 66.080 0 37.536-30.72 68.256-68.256 68.256s-68.256-30.72-68.256-68.256c0-31.648 21.856-58.464 51.2-66.080zM512 345.6c18.784 0 34.144-15.36 34.144-34.144s-15.36-34.144-34.144-34.144c-18.784 0-34.144 15.36-34.144 34.144s15.36 34.144 34.144 34.144z" />
<glyph unicode="&#xe943;" glyph-name="reg-open2" d="M785.056 840.544h-85.344v17.056c0 18.784-15.36 34.144-34.144 34.144h-51.2v17.056c0 29.024-22.176 51.2-51.2 51.2h-102.4c-29.024 0-51.2-23.904-51.2-51.2v-17.056h-51.2c-18.784 0-34.144-15.36-34.144-34.144v-17.056h-85.344c-47.776 0-85.344-37.536-85.344-85.344v-733.856c0-47.776 37.536-85.344 85.344-85.344h546.144c47.776 0 85.344 37.536 85.344 85.344v733.856c0 47.776-37.536 85.344-85.344 85.344zM358.4 857.6h68.256c10.24 0 17.056 6.816 17.056 17.056v34.144c0 10.24 6.816 17.056 17.056 17.056h102.4c10.24 0 17.056-8.544 17.056-17.056v-34.144c0-10.24 6.816-17.056 17.056-17.056h68.256v-119.456h-307.2v119.456zM836.256 21.344c0-29.024-22.176-51.2-51.2-51.2h-546.144c-29.024 0-51.2 22.176-51.2 51.2v733.856c0 29.024 22.176 51.2 51.2 51.2h85.344v-68.256c0-18.784 15.36-34.144 34.144-34.144h307.2c18.784 0 34.144 15.36 34.144 34.144v68.256h85.344c29.024 0 51.2-22.176 51.2-51.2v-733.856zM684.384 553.824c-20.48 18.784-52.896 18.784-71.68 0l-269.664-257.696-35.168-139.264-12.608-12.608c-6.816-6.816-6.816-17.056 0-23.904 3.424-3.424 6.816-5.12 11.936-5.12s8.544 1.696 11.936 5.12l15.008 15.008 135.168 32.768 269.664 271.36c17.056 17.056 17.056 42.656 0 59.744l-54.624 54.624zM382.944 286.112l178.528 170.4 74.24-74.24-174.464-174.464-78.304 78.304zM367.776 253.024l60.16-60.16-79.776-19.616 19.616 79.776zM715.104 461.664l-55.264-55.264-73.664 73.696 50.432 48.128c6.816 6.816 17.056 6.816 23.904 0l54.624-54.624c3.424-3.424 3.424-8.544 0-11.936z" />
<glyph unicode="&#xe944;" glyph-name="right-arrow2" d="M320.704-2.88c-6.336-6.336-14.304-9.536-23.008-9.536s-16.672 3.168-23.008 9.536c-12.704 12.704-12.704 33.344 0 46.048l404.832 404.832-404.832 404.832c-12.704 12.704-12.704 33.344 0 46.048s33.344 12.704 46.048 0l427.872-427.872c12.704-12.704 12.704-33.344 0-46.048l-427.872-427.872z" />
<glyph unicode="&#xe945;" glyph-name="search2" d="M409.6 192.384c87.328 0 166.688 30.944 228.608 83.36l277.824-277.824c6.336-6.336 14.304-9.536 23.008-9.536s16.672 3.168 23.008 9.536c12.704 12.704 12.704 33.344 0 46.048l-277.824 277.824c51.584 61.92 83.36 142.080 83.36 228.608 0 197.664-160.352 358.016-358.016 358.016-196.864 0-358.016-161.152-358.016-358.016 0-197.664 161.152-358.016 358.016-358.016zM409.6 843.296c161.92 0 292.896-131.776 292.896-292.896 0-161.92-130.976-292.896-292.896-292.896s-292.896 131.776-292.896 292.896c0 161.152 131.776 292.896 292.896 292.896z" />
<glyph unicode="&#xe946;" glyph-name="tel2" d="M422.688 340.96c-79.008 0-143.264-64.256-143.264-143.264s64.256-143.232 143.264-143.232c78.976 0 143.232 64.256 143.232 143.232s-64.256 143.264-143.232 143.264zM422.688 97.088c-55.488 0-100.608 45.152-100.608 100.608s45.152 100.64 100.608 100.64c55.488 0 100.608-45.152 100.608-100.64s-45.12-100.608-100.608-100.608zM942.848 541.44c4 12.672 78.88 191.936-395.264 357.216-101.28 35.296-203.072 49.536-291.616 49.536-127.84 0-212.832-36.864-233.216-101.12l-19.392-61.184c-11.392-35.936 7.296-74.048 41.696-84.928 0 0 152.512-51.936 163.456-48.736 0 0 0 0 0.032 0 29.088 0 54.816 19.424 63.968 48.352 14.432 45.472 70.176 74.88 142.080 74.88 29.376 0 59.488-4.8 89.44-14.304 52.992-16.8 98.24-46.080 127.424-82.432 27.168-33.856 36.736-69.536 26.912-100.448-11.392-35.936 7.296-74.048 41.696-84.928 0 0 149.12-47.68 155.52-48.224 58.688-4.96 72.768 50.528 72.768 50.528 39.904-44.768 58.88-107.52 50.144-170.624-9.984-72.128-59.712-137.184-126.72-165.664-10.080-4.256-20.128-7.296-30.432-9.152-1.056 44.096-17.312 86.624-46.080 120.192l-242.368 228.064v65.92h-42.624v-53.824h-135.104v53.824h-42.624v-65.92c0 0-194.176-179.84-240.768-226.432-51.584-51.584-47.744-132.384-47.744-132.384 0-105.792 86.080-191.84 191.872-191.84h413.728c94.56 0 173.376 68.768 189.024 158.912 17.024 2.048 33.472 6.432 49.856 13.376 80.544 34.24 138.112 112.736 152.256 199.072 22.656 138.048-77.824 222.272-77.824 222.272zM857.344 488.16l-144.448 45.792c-11.968 3.808-18.208 17.888-13.92 31.424 14.272 44.96 2.080 94.688-34.304 140.032-34.368 42.848-86.88 77.056-147.808 96.384-34.112 10.816-68.512 16.288-102.304 16.288-90.848 0-162.56-41.056-182.72-104.608-3.488-10.944-13.056-18.624-23.328-18.624-2.080 0-150.592 46.752-150.592 46.752-11.968 3.808-18.208 17.888-13.92 31.424l19.392 61.184c14.176 44.704 86.144 71.392 192.576 71.392 84.256 0 180.64-16.448 278.752-47.552 248.352-78.72 395.136-216.576 371.52-291.040l-19.392-61.184c-4.192-13.152-17.472-21.472-29.472-17.664zM778.784 139.648c0-82.272-66.944-149.216-149.216-149.216h-413.728c-82.304 0-149.216 66.944-149.216 149.216 0 0-5.024 52.32 35.168 102.144l240.48 226.144h160.832l240.48-226.144c38.208-43.936 35.168-102.144 35.168-102.144z" />
<glyph unicode="&#xe947;" glyph-name="twitter2" d="M1015.488 772.928c-6.848 4.64-15.936 4.384-22.56-0.608-8.704-6.592-22.848-11.808-38.080-15.84 39.648 44.448 40.512 74.144 40.096 80.96-0.448 7.040-4.704 13.312-11.072 16.32s-13.92 2.272-19.648-1.856c-44.608-32.448-89.056-39.264-115.488-39.968-40.576 38.816-93.248 60.096-149.312 60.096-120.064 0-217.696-98.976-217.696-220.608 0-10.464 0.736-20.896 2.176-31.264-208.064 2.336-376.992 201.696-378.752 203.776-4.064 4.832-10.24 7.424-16.544 6.88s-11.968-4.128-15.104-9.632c-59.872-103.84-19.808-195.072 16.832-247.296-6.464 3.456-11.712 6.848-14.848 9.152-5.824 4.352-13.568 5.056-20.128 1.856s-10.688-9.792-10.816-17.056c-1.6-98.976 46.016-155.648 90.816-187.008-5.952 0.576-12.032-1.632-16.192-6.176-4.64-5.056-6.304-12.192-4.288-18.784 30.944-101.28 106.912-135.68 155.264-147.36-99.392-77.376-245.664-52.48-247.296-52.192-8.832 1.568-17.568-3.072-21.152-11.264s-1.152-17.76 5.984-23.2c104.928-80.064 230.4-97.792 321.056-97.792 68.576 0 117.216 10.144 121.856 11.168 459.168 108.8 472.064 529.376 471.008 598.304 86.208 80.16 99.68 110.688 101.728 118.24 2.24 8-0.896 16.512-7.776 21.184zM888.832 655.968c-4.32-3.968-6.592-9.696-6.208-15.552 1.216-18.592 24.704-457.184-440.64-567.456-2.112-0.448-187.072-39.040-347.424 40.384 67.744 1.888 164.896 19.616 232.576 95.616 5.12 5.728 6.368 13.92 3.168 20.896-3.136 6.912-10.048 11.36-17.632 11.36-0.064 0-0.128 0-0.192 0-0.96-0.608-102.72 0.128-149.28 96.896 18.752-1.056 41.888 0.096 60.32 8.576 7.584 3.52 12.064 11.456 11.136 19.776s-7.104 15.040-15.264 16.768c-5.216 1.12-118.464 26.432-134.336 149.984 17.184-7.52 39.168-13.664 60.928-10.336 7.488 1.12 13.6 6.496 15.712 13.76s-0.192 15.104-5.92 20.064c-4.832 4.224-111.2 98.752-60.768 220.672 54.752-57.44 216.928-206.72 413.408-195.456 5.76 0.32 11.072 3.232 14.496 7.872s4.576 10.592 3.168 16.192c-3.712 14.816-5.632 30.080-5.632 45.344 0 100.288 80.288 181.856 178.976 181.856 48.256 0 93.536-19.264 127.456-54.24 3.552-3.68 8.48-5.792 13.568-5.888 20.544-0.288 54.304 2.144 92.416 17.408-11.008-13.696-27.168-30.112-50.944-48.8-6.72-5.28-9.184-14.336-6.048-22.304s11.168-12.992 19.584-12.256c4.512 0.352 27.52 2.368 53.568 8.032-14.208-15.264-33.664-34.752-60.224-59.2z" />
<glyph unicode="&#xe948;" glyph-name="twitter-full2" d="M1024 765.568c-37.664-16.736-78.176-28-120.672-33.056 43.392 25.984 76.704 67.168 92.384 116.224-40.576-24.064-85.536-41.568-133.408-50.976-38.272 40.832-92.928 66.336-153.344 66.336-135.648 0-235.296-126.56-204.672-257.92-174.56 8.736-329.344 92.384-432.992 219.488-55.040-94.432-28.544-217.952 64.992-280.48-34.4 1.12-66.816 10.528-95.104 26.272-2.304-97.312 67.456-188.384 168.48-208.64-29.568-8.032-61.952-9.888-94.88-3.584 26.72-83.456 104.288-144.16 196.256-145.888-88.32-69.248-199.584-100.192-311.040-87.040 92.96-59.616 203.424-94.368 322.048-94.368 390.048 0 610.432 329.44 597.12 624.896 41.056 29.664 76.672 66.656 104.832 108.768z" />
<glyph unicode="&#xe949;" glyph-name="up-arrow2" d="M53.632 187.264l456.96 453.248 457.28-453.536c6.336-6.304 14.688-9.44 22.976-9.44s16.64 3.136 22.976 9.44c12.672 12.576 12.672 32.992 0 45.6l-479.68 475.744c-3.2 3.2-7.904 6.016-12.096 7.584-12 4.512-25.568 1.696-34.656-7.296l-479.712-475.744c-12.704-12.576-12.704-32.992 0-45.568s33.28-12.576 45.984 0z" />
<glyph unicode="&#xe94a;" glyph-name="web2" d="M731.68 164.128c-7.232 0-14.432 2.752-19.904 8.256-11.008 11.008-11.008 28.832 0 39.84l231.36 231.36-231.36 231.36c-11.008 11.008-11.008 28.832 0 39.84s28.832 11.008 39.84 0l271.2-271.2-271.2-271.2c-5.504-5.504-12.704-8.256-19.904-8.256zM295.648 164.128c-7.232 0-14.432 2.752-19.936 8.256l-271.2 271.2 271.2 271.2c11.008 11.008 28.832 11.008 39.84 0s11.008-28.832 0-39.84l-231.36-231.36 231.328-231.36c11.008-11.008 11.008-28.832 0-39.84-5.504-5.504-12.704-8.256-19.936-8.256zM392.736 31.232c-2.624 0-5.28 0.352-7.936 1.12-14.944 4.384-23.488 20.032-19.136 34.976l226.528 775.072c4.384 14.944 20 23.488 34.976 19.136s23.52-20 19.136-34.944l-226.56-775.072c-3.584-12.288-14.848-20.288-27.040-20.288z" />
<glyph unicode="&#xe94b;" glyph-name="youtube2" d="M820.384 824.16h-616.736c-112.288 0-203.616-91.648-203.616-204.256v-343.776c0-112.64 91.36-204.256 203.616-204.256h616.736c112.288 0 203.616 91.648 203.616 204.256v343.776c0 112.608-91.36 204.256-203.616 204.256zM982.208 276.096c0-89.6-72.608-162.464-161.824-162.464h-616.736c-89.248 0-161.824 72.896-161.824 162.464v343.808c0 89.568 72.608 162.464 161.824 162.464h616.736c89.248 0 161.824-72.896 161.824-162.464v-343.808zM697.152 455.552l-289.536 169.6c-6.432 3.776-14.432 3.84-20.928 0.096s-10.528-10.624-10.528-18.144v-339.168c0-7.488 4-14.432 10.496-18.144 3.232-1.824 6.816-2.752 10.4-2.752 3.648 0 7.296 0.96 10.56 2.848l289.536 169.536c6.4 3.744 10.336 10.624 10.336 18.048s-3.936 14.304-10.336 18.048zM417.952 304.416v266.24l227.296-133.152-227.296-133.088z" />
<glyph unicode="&#xe94c;" glyph-name="youtube-full2" d="M836.896 824.16c-153.76 10.496-496.256 10.464-649.824 0-166.272-11.36-185.856-111.776-187.104-376.16 1.248-263.904 20.64-364.768 187.104-376.16 153.6-10.464 496.032-10.496 649.824 0 166.272 11.36 185.856 111.776 187.104 376.16-1.248 263.904-20.64 364.768-187.104 376.16zM384 277.344v341.344l341.344-170.368-341.344-170.976z" />
<glyph unicode="&#xe94d;" glyph-name="hub2" horiz-adv-x="1414" d="M972.143 24.946h-179.202c-2.268 0-5.674 0-7.942 1.137-34.032 12.475-46.506 35.159-49.902 52.171-9.070 34.032 6.801 71.458 26.090 94.141 1.137 1.137 2.268 2.268 2.268 3.407 17.010 15.882 26.090 37.427 26.090 60.109 0 46.506-49.902 82.794-94.141 82.794s-94.141-36.298-94.141-82.794c0-22.684 9.070-44.238 26.090-58.981 1.137-1.137 2.268-2.268 2.268-3.407 19.278-22.684 37.427-61.249 28.357-96.409-4.535-15.882-17.010-38.566-51.041-49.902-2.268-1.137-4.535-1.137-6.801-1.137l-240.452-1.137c-78.259 0-130.44 52.171-130.44 130.44v199.617c0 3.407 1.137 5.674 2.268 9.070 11.344 26.090 31.757 44.238 56.715 49.902 27.218 6.801 58.981-2.268 81.666-20.416 1.137-1.137 2.268-2.268 3.407-2.268 15.882-17.010 37.427-26.090 60.109-26.090 45.368 0 82.794 37.427 82.794 82.794s-37.427 82.794-82.794 82.794c-22.684 0-44.238-9.070-60.109-26.090-1.137-2.268-2.268-3.407-3.407-3.407-22.684-19.278-54.445-27.218-81.666-20.416-24.951 5.674-45.368 23.823-56.715 49.902-1.137 2.268-2.268 5.674-2.268 9.070v199.617c0 78.259 52.171 130.44 130.44 130.44l240.452-1.137c2.268 0 4.535 0 6.801-1.137 34.032-11.344 46.506-34.032 51.041-49.902 9.070-35.159-9.070-73.724-28.357-96.409-1.137-1.137-1.137-2.268-2.268-2.268-17.010-15.882-26.090-36.298-26.090-58.981 0-46.506 40.833-82.794 94.141-82.794 43.1 0 94.141 36.298 94.141 82.794 0 22.684-9.070 44.238-26.090 60.109-1.137 1.137-2.268 2.268-3.407 3.407-19.278 22.684-35.159 61.249-26.090 94.141 4.535 17.010 17.010 39.694 49.902 52.171 2.268 1.137 4.535 1.137 7.942 1.137h180.341c78.259 0 130.44-52.171 130.44-130.44v-179.202c3.407-9.070 10.208-20.416 18.15-22.684 10.208-2.268 26.090 4.535 40.833 17.010 1.137 1.137 3.407 2.268 4.535 3.407 34.032 20.416 57.842 27.218 94.141 27.218 77.131 0 139.508-62.378 139.508-139.508s-62.378-139.508-139.508-139.508c-37.427 0-61.249 6.801-94.141 27.218-2.268 1.137-3.407 2.268-4.535 3.407-15.882 13.614-30.625 20.416-40.833 17.010-9.070-2.268-14.743-12.475-18.15-22.684v-179.202c0-75.992-52.171-128.167-130.44-128.167zM796.336 70.315h175.806c53.309 0 85.066 31.757 85.066 85.066v183.747c0 4.535 1.137 7.942 3.407 11.344 13.614 34.032 34.032 45.368 48.774 49.902 24.951 6.801 53.309-2.268 80.527-26.090 27.218-15.882 43.1-21.551 71.458-21.551 52.171 0 94.141 41.964 94.141 94.141s-41.964 94.141-94.141 94.141c-28.357 0-45.368-4.535-71.458-21.551-27.218-22.684-55.576-31.757-80.527-26.090-15.882 4.535-36.298 15.882-49.902 49.902-2.268 3.407-3.407 6.801-3.407 11.344v184.874c0 53.309-31.757 85.066-85.066 85.066h-174.668c-13.614-5.674-17.010-13.614-18.15-19.278-4.535-17.010 5.674-40.833 18.15-54.445 0 0 0 0 0 0 24.951-23.823 38.566-56.715 38.566-90.734 0-68.051-64.652-128.167-139.508-128.167-78.259 0-139.508 55.576-139.508 128.167 0 35.159 13.614 66.923 38.566 90.734 12.475 14.743 23.823 38.566 19.278 55.576-1.137 3.407-3.407 11.344-18.15 18.15h-235.917c-53.309 0-85.066-31.757-85.066-85.066v-196.223c5.674-10.208 13.614-17.010 22.684-19.278 13.614-3.407 31.757 2.268 44.238 12.475 23.823 24.951 56.715 38.566 90.734 38.566 70.319 0 128.167-56.715 128.167-128.167s-57.842-127.033-128.167-127.033c-34.032 0-66.923 13.614-90.734 38.566-12.475 10.208-29.486 15.882-44.238 12.475-10.208-2.268-18.15-9.070-22.684-19.278v-196.223c0-53.309 31.757-85.066 85.066-85.066h235.917c15.882 6.801 18.15 14.743 18.15 18.15 4.535 15.882-6.801 40.833-19.278 55.576-24.951 23.823-38.566 56.715-38.566 90.734 0 68.051 64.652 128.167 139.508 128.167s139.508-60.109 139.508-128.167c0-34.032-13.614-66.923-38.566-90.734 0 0 0 0 0 0-12.475-13.614-22.684-37.427-18.15-54.445 1.137-5.674 4.535-13.614 18.15-19.278z" />
<glyph unicode="&#xe94e;" glyph-name="akademie2" horiz-adv-x="1381" d="M1316.713 695.833l-618.099 224.654c-4.756 2.378-10.696 2.378-16.641 0l-616.91-224.654c-9.51-3.567-15.452-11.885-15.452-22.585s5.944-19.018 15.452-22.585l130.751-47.548c-32.092-47.548-14.263-288.842-13.074-291.22 0 0 0 0 0 0-36.848-9.51-63-46.359-58.244-85.585 2.378-23.774 17.829-45.17 38.037-57.055l-43.981-87.958c-5.944-11.885-1.189-26.152 10.696-32.092 2.378-1.189 5.944-2.378 9.51-2.378 8.322 0 16.641 4.756 21.396 13.074l19.018 36.848v-98.658c0-13.074 10.696-23.774 23.774-23.774s23.774 10.696 23.774 23.774v135.506l34.47-59.433c4.756-7.133 11.885-11.885 20.207-11.885 3.567 0 8.322 1.189 11.885 3.567 11.885 7.133 15.452 21.396 8.322 32.092l-46.359 80.829c17.829 16.641 28.529 41.603 24.963 67.752-3.567 30.903-24.963 54.677-52.299 64.188 0 2.378 1.189 4.756 0 7.133-5.944 59.433-9.51 235.354 5.944 259.127 2.378 2.378 4.756 5.944 9.51 9.51l60.622-21.396v-300.727c0-5.944 2.378-11.885 7.133-16.641 91.525-91.525 229.409-137.884 369.671-137.884s282.898 45.17 386.312 135.506c5.944 4.756 9.51 10.696 9.51 19.018v300.727l238.92 86.771c9.51 3.567 15.452 11.885 15.452 22.585s-4.756 19.018-14.263 21.396zM1029.060 276.24c-186.617-154.525-514.684-155.714-677.531-1.189v272.201l331.634-118.866c2.378-1.189 5.944-1.189 8.322-1.189s5.944 0 8.322 1.189l329.257 118.866v-271.013zM690.293 475.935l-392.256 142.64c46.359 21.396 112.921 43.981 194.939 55.866 13.074 2.378 21.396 14.263 20.207 27.341-2.378 13.074-14.263 21.396-27.341 20.207-95.092-14.263-191.372-47.548-247.239-80.829l-93.903 34.47 545.592 197.317 547.969-198.506-547.969-198.506z" />
<glyph unicode="&#xe94f;" glyph-name="letniskola2" horiz-adv-x="1100" d="M1091.254 558.644c-146.441 227.797-314.576 293.966-514.169 199.593-9.763 79.186-55.322 123.661-94.373 148.61-103.051 64-260.339 46.644-327.593 6.508-5.424-3.254-8.678-8.678-9.763-15.186-28.203-167.051-109.559-580.339-138.847-683.39-2.169-7.593 0-16.271 6.508-22.78 6.508-5.424 15.186-6.508 22.78-3.254 53.153 22.78 118.237 19.525 164.881-10.847 42.305-27.119 66.169-73.763 68.339-133.424 0 0 0 0 0-1.085s0-2.169 0-2.169c0 0 0-1.085 0-1.085 0-1.085 0-1.085 1.085-2.169 0 0 0-1.085 0-1.085 0-1.085 1.085-2.169 1.085-2.169s0-1.085 0-1.085c1.085-1.085 1.085-2.169 2.169-3.254 0 0 0 0 1.085 0 1.085-1.085 1.085-1.085 2.169-2.169 0 0 0 0 0 0s1.085 0 1.085-1.085c1.085 0 1.085-1.085 2.169-1.085 0 0 1.085 0 1.085 0 1.085 0 1.085 0 2.169-1.085 0 0 1.085 0 1.085 0 1.085 0 2.169 0 2.169 0s0 0 1.085 0c0 0 0 0 1.085 0 0 0 0 0 0 0 1.085 0 2.169 0 3.254 0 0 0 1.085 0 1.085 0 1.085 0 2.169 1.085 3.254 1.085 0 0 1.085 0 1.085 0 1.085 0 2.169 1.085 2.169 1.085s1.085 1.085 1.085 1.085c0 0 1.085 1.085 1.085 1.085 37.966 35.797 101.966 54.237 171.39 47.729 94.373-8.678 180.068-56.407 235.39-133.424 4.339-5.424 10.847-8.678 17.356-8.678 0 0 1.085 0 1.085 0 7.593 0 14.102 4.339 17.356 10.847 11.932 21.695 73.763 126.915 138.847 237.559 47.729 81.356 99.797 169.22 138.847 236.475 19.525 33.627 35.797 61.831 47.729 82.441 28.203 43.39 28.203 43.39 21.695 56.407zM298.305 121.492c-17.356 47.729-47.729 77.017-74.847 94.373-46.644 30.373-108.475 39.051-165.966 26.034 34.712 141.017 100.881 482.712 128 638.915 60.746 30.373 189.831 40.136 273.356-10.847 54.237-32.542 79.186-85.695 75.932-157.288-45.559-143.186-138.847-363.39-209.356-526.102-8.678-22.78-18.441-44.475-27.119-65.085zM849.356 206.102c-52.068-88.949-98.712-168.136-122.576-210.441-62.915 71.593-151.864 116.068-247.322 124.746-10.847 1.085-20.61 1.085-31.458 1.085-41.22 0-79.186-7.593-111.729-20.61 9.763 21.695 19.525 44.475 29.288 68.339 70.508 164.881 165.966 387.254 211.525 532.61 0 0 0 1.085 0 1.085 1.085 3.254 2.169 6.508 3.254 8.678 185.492 93.288 329.763 42.305 466.441-167.051-22.78-41.22-119.322-205.017-197.424-338.441zM659.525 598.78c-11.932-2.169-19.525-14.102-17.356-24.949 2.169-11.932 14.102-19.525 24.949-17.356 78.102 15.186 142.102-13.017 186.576-81.356 4.339-6.508 10.847-9.763 18.441-9.763 4.339 0 7.593 1.085 11.932 3.254 9.763 6.508 13.017 19.525 6.508 30.373-53.153 82.441-135.593 118.237-231.051 99.797zM597.695 456.678c-11.932-2.169-19.525-14.102-16.271-26.034 2.169-11.932 14.102-19.525 26.034-16.271 81.356 18.441 135.593-24.949 165.966-64 4.339-5.424 10.847-8.678 17.356-8.678 4.339 0 9.763 1.085 13.017 4.339 9.763 7.593 10.847 20.61 3.254 30.373-53.153 70.508-128 98.712-209.356 80.271zM545.627 317.831c-11.932-1.085-20.61-11.932-19.525-23.864s11.932-20.61 23.864-19.525c59.661 7.593 106.305-11.932 144.271-57.492 4.339-5.424 10.847-7.593 16.271-7.593s9.763 2.169 14.102 5.424c9.763 7.593 10.847 21.695 3.254 30.373-46.644 56.407-107.39 81.356-182.237 72.678zM267.932 743.051c-11.932-2.169-19.525-13.017-18.441-24.949 2.169-11.932 13.017-19.525 24.949-18.441 48.814 7.593 108.475-19.525 135.593-48.814 4.339-4.339 9.763-6.508 16.271-6.508 5.424 0 10.847 2.169 15.186 5.424 8.678 7.593 9.763 21.695 1.085 30.373-35.797 37.966-108.475 72.678-174.644 62.915zM236.475 593.356c-11.932-2.169-19.525-13.017-17.356-24.949s14.102-19.525 24.949-17.356c41.22 7.593 90.034-14.102 103.051-37.966 4.339-7.593 11.932-11.932 19.525-11.932 3.254 0 6.508 1.085 9.763 2.169 10.847 5.424 14.102 18.441 8.678 29.288-21.695 44.475-92.203 71.593-148.61 60.746zM201.763 451.254c-11.932-2.169-19.525-13.017-17.356-24.949s13.017-19.525 24.949-17.356c50.983 8.678 86.78-8.678 99.797-30.373 4.339-6.508 10.847-10.847 18.441-10.847 4.339 0 7.593 1.085 10.847 3.254 9.763 6.508 13.017 19.525 7.593 29.288-19.525 32.542-68.339 64-144.271 50.983z" />
<glyph unicode="&#xe950;" glyph-name="prace2" horiz-adv-x="1442" d="M1428.406 540.754c-4.947 8.657-16.077 13.604-24.734 8.657l-180.56-87.807c-4.947-2.473-7.42-6.184-9.894-11.13-74.203-234.976-333.913-352.464-505.816-430.377-25.971-11.13-49.469-22.261-70.493-32.155-34.628-6.184-48.232 13.604-51.942 23.498-7.42 17.314-6.184 40.812 12.367 55.652l202.821 100.174c8.657 4.947 12.367 16.077 8.657 24.734-4.947 8.657-16.077 12.367-24.734 8.657l-204.058-101.411c0 0 0 0 0 0l-87.807-44.522c-19.787-9.894-33.391-4.947-43.285 12.367-8.657 17.314-7.42 44.522 7.42 51.942 3.71 1.237 6.184 3.71 7.42 7.42l278.261 137.275c8.657 4.947 12.367 16.077 8.657 24.734-4.947 8.657-16.077 12.367-24.734 8.657l-316.599-158.3c-14.841-7.42-28.444-6.184-39.575 1.237s-17.314 21.024-16.077 34.628c1.237 18.551 14.841 35.865 39.575 46.995 2.473 1.237 3.71 2.473 4.947 3.71 2.473 1.237 6.184 2.473 8.657 3.71l260.947 129.855c8.657 4.947 12.367 16.077 8.657 24.734s-16.077 12.367-24.734 8.657l-260.947-129.855c-27.208-13.604-49.469-2.473-58.126 14.841-7.42 14.841-7.42 34.628 14.841 48.232l383.382 194.164c8.657 4.947 12.367 16.077 8.657 24.734-4.947 8.657-16.077 12.367-24.734 8.657l-383.382-195.401c-17.314-9.894-28.444-23.498-33.391-38.338-12.367 14.841-24.734 34.628-35.865 53.179-16.077 24.734-30.918 49.469-45.758 64.309-1.237 1.237-2.473 2.473-4.947 3.71l-171.903 92.754c-8.657 4.947-19.787 1.237-24.734-7.42s-1.237-19.787 7.42-24.734l166.957-91.517c12.367-13.604 25.971-35.865 39.575-56.889 21.024-32.155 42.048-65.546 63.072-82.86 1.237-1.237 2.473-1.237 4.947-2.473 1.237-2.473 2.473-4.947 3.71-7.42 8.657-14.841 21.024-27.208 38.338-34.628-12.367-13.604-19.787-30.918-21.024-48.232-2.473-27.208 9.894-53.179 32.155-68.019 12.367-8.657 25.971-12.367 39.575-12.367 6.184 0 11.13 1.237 17.314 2.473-2.473-17.314 1.237-35.865 8.657-50.705 12.367-23.498 33.391-37.101 56.889-37.101 11.13 0 23.498 2.473 35.865 8.657l37.101 18.551c-1.237-14.841 0-30.918 7.42-44.522 11.13-23.498 34.628-45.758 72.966-45.758 7.42 0 14.841 1.237 23.498 2.473 1.237 0 2.473 1.237 3.71 1.237 21.024 9.894 45.758 21.024 71.729 33.391 175.614 80.386 441.507 200.348 523.13 445.217l173.14 85.333c8.657 3.71 12.367 14.841 7.42 24.734zM93.99 913.005c296.812-159.536 316.599-149.643 326.493-144.696 50.705 27.208 179.324 64.309 260.947 30.918 22.261-8.657 46.995-18.551 71.729-25.971 2.473-2.473 6.184-2.473 9.894-3.71 80.386-25.971 165.72-46.995 217.662-60.599 21.024-4.947 40.812-9.894 48.232-12.367 1.237-2.473 1.237-4.947 0-9.894-4.947-21.024-27.208-48.232-58.126-58.126-35.865-11.13-178.087 18.551-258.473 39.575-4.947 1.237-9.894 0-14.841-2.473-3.71-2.473-7.42-7.42-8.657-11.13-8.657-35.865-29.681-64.309-63.072-81.623-53.179-28.444-129.855-24.734-210.242 7.42-9.894 3.71-19.787-1.237-24.734-9.894-3.71-9.894 1.237-19.787 9.894-24.734 48.232-19.787 95.227-29.681 138.512-29.681 38.338 0 72.966 7.42 102.647 23.498 37.101 19.787 64.309 49.469 77.913 87.807 55.652-13.604 212.715-50.705 262.184-34.628 45.758 14.841 76.676 54.415 84.097 85.333 3.71 18.551 0 35.865-12.367 45.758-4.947 4.947-8.657 6.184-63.072 19.787-39.575 9.894-97.7 23.498-157.063 42.048 59.362 13.604 155.826 23.498 258.473-16.077 0 0 0 0 1.237 0 2.473-1.237 3.71-1.237 6.184-1.237 0 0 0 0 0 0s0 0 0 0 0 0 0 0c1.237 0 3.71 0 4.947 1.237 0 0 1.237 0 1.237 1.237 1.237 0 1.237 0 2.473 1.237l228.792 131.092c8.657 4.947 12.367 16.077 7.42 24.734s-16.077 12.367-24.734 7.42l-226.319-127.382c-148.406 54.415-279.498 14.841-322.783 1.237-2.473-1.237-3.71-1.237-6.184-1.237-24.734 8.657-48.232 17.314-70.493 25.971-96.464 39.575-233.739-2.473-288.155-29.681-28.444 3.71-169.43 74.203-294.338 140.986-8.657 4.947-21.024 1.237-24.734-7.42-4.947-8.657-2.473-19.787 7.42-24.734z" />
<glyph unicode="&#xe951;" glyph-name="digi2" horiz-adv-x="993" d="M619.598 454.461c-20.465 0.325-39.058-7.857-52.478-21.256l-154.025 78.438c0.513 3.301 0.891 6.645 0.941 10.071 0.081 4.794-0.335 9.481-1.158 14.037l153.592 82.5c28.095-26.829 72.586-26.959 100.724 0.297 28.852 27.946 29.578 73.972 1.647 102.803-27.943 28.852-73.95 29.599-102.803 1.656-18.052-17.478-25.084-42.078-20.974-65.097l-153.549-82.489c-12.77 12.208-29.924 19.859-49.004 20.17-40.14 0.628-73.203-31.385-73.853-71.558-0.621-40.119 31.385-73.225 71.537-73.848 20.476-0.335 39.071 7.857 52.489 21.25l154.014-78.438c-0.513-3.301-0.891-6.645-0.941-10.076-0.639-40.151 31.385-73.214 71.527-73.853 40.162-0.649 73.225 31.374 73.863 71.547 0.621 40.152-31.407 73.203-71.569 73.848zM821.126 880h-649.135c-52.056 0-94.415-42.359-94.415-94.426v-510.149c0-52.045 42.337-94.404 94.415-94.404h85.605v-142.489c0-8.279 4.535-15.898 11.829-19.827 3.344-1.809 7.034-2.716 10.714-2.716 4.307 0 8.613 1.234 12.34 3.68l246.47 161.341h282.184c52.056 0 94.423 42.337 94.423 94.404v510.149c0 52.077-42.365 94.437-94.423 94.437zM870.466 275.435c0-27.197-22.132-49.328-49.34-49.328h-288.895c-4.383 0-8.669-1.277-12.34-3.68l-217.217-142.185v123.333c0 12.448-10.087 22.543-22.543 22.543h-108.14c-27.218 0-49.331 22.121-49.331 49.328v510.149c0 27.218 22.114 49.35 49.331 49.35h649.135c27.208 0 49.34-22.132 49.34-49.35v-510.16z" />
<glyph unicode="&#xe952;" glyph-name="cena2" horiz-adv-x="1097" d="M778.978 425.464c16.351 21.787 28.802 47.386 38.506 75.117 101.367 37.817 199.13 154.009 183.573 270.192-8.598 68.333-94.81 68.662-154.582 65.776l-0.317 11.375c-0.377 13.409-11.35 24.077-24.747 24.077h-545.843c-13.409 0-24.369-10.668-24.747-24.077l-0.329-11.387c-59.76 2.874-145.971 2.618-154.557-65.569-15.576-116.367 82.181-232.549 183.554-270.391 9.694-27.73 22.129-53.329 38.506-75.117 59.772-79.623 112.675-129.542 169.354-159.331-5.221-48.653-21.349-109.46-43.49-117.852-12.519-4.744-24.625-8.683-36.377-12.482-42.308-13.676-82.302-26.598-117.373-71.897-5.785-7.466-6.811-17.57-2.667-26.051 4.165-8.476 12.775-13.859 22.225-13.859h477.624c9.45 0 18.061 5.38 22.225 13.859 4.165 8.464 3.118 18.585-2.667 26.051-35.062 45.292-75.044 58.223-117.373 71.897-11.741 3.79-23.858 7.712-36.377 12.482-22.116 8.416-38.241 69.199-43.488 117.852 56.678 29.789 109.583 79.708 169.369 159.331zM951.951 764.396c10.218-76.35-48.897-159.452-117.596-200.737 14.31 73.546 14.943 154.52 13.436 223.376 38.984 1.851 100.972 2.655 104.162-22.64zM145.005 764.585c3.154 25.112 65.131 24.301 104.138 22.446-1.498-68.857-0.875-149.811 13.432-223.365-68.699 41.285-127.826 124.403-117.571 200.909zM573.298 303.46c-9.292-4.25-15.053-13.762-14.456-23.955 1.458-25.343 12.020-152.913 76.668-177.513 13.7-5.188 26.428-9.305 38.74-13.311 15.6-5.042 29.484-9.524 42.161-15.174h-335.893c12.678 5.645 26.573 10.132 42.161 15.174 12.312 3.982 25.044 8.099 38.74 13.311 64.656 24.576 75.214 152.17 76.668 177.513 0.596 10.193-5.163 19.705-14.456 23.955-54.791 24.954-106.025 71.738-166.082 151.732-64.96 86.526-61.294 253.58-57.97 367.291h497.767c3.337-113.698 6.991-280.773-57.958-367.291-60.052-80-111.278-126.802-166.077-151.732z" />
</font>
</defs>
</svg>
